<mxfile host="app.diagrams.net" modified="2023-04-19T10:31:16.310Z" agent="Mozilla/5.0 (Windows NT 10.0; Win64; x64; rv:109.0) Gecko/20100101 Firefox/111.0" etag="AfFtLJya64w1kJuNrDs9" version="21.1.5" type="device">
  <diagram name="PÃ¡gina-1" id="NYznuCwHWtCbUjqNWpKD">
    <mxGraphModel dx="1877" dy="1727" grid="1" gridSize="10" guides="1" tooltips="1" connect="1" arrows="1" fold="1" page="1" pageScale="1" pageWidth="827" pageHeight="1169" math="0" shadow="0">
      <root>
        <mxCell id="0" />
        <mxCell id="1" parent="0" />
        <mxCell id="2UWd0R9MiRfLyB3t6blX-8" value="&lt;T&gt; ASTNode" style="swimlane;fontStyle=0;childLayout=stackLayout;horizontal=1;startSize=26;horizontalStack=0;resizeParent=1;resizeParentMax=0;resizeLast=0;collapsible=1;marginBottom=0;" parent="1" vertex="1">
          <mxGeometry x="240" y="120" width="140" height="82" as="geometry" />
        </mxCell>
        <mxCell id="2UWd0R9MiRfLyB3t6blX-10" value="getColumn():int&#xa;&#xa;&#xa;" style="text;align=left;verticalAlign=top;spacingLeft=4;spacingRight=4;overflow=hidden;rotatable=0;points=[[0,0.5],[1,0.5]];portConstraint=eastwest;" parent="2UWd0R9MiRfLyB3t6blX-8" vertex="1">
          <mxGeometry y="26" width="140" height="28" as="geometry" />
        </mxCell>
        <mxCell id="2UWd0R9MiRfLyB3t6blX-12" value="getLine():int&#xa;&#xa;&#xa;" style="text;align=left;verticalAlign=top;spacingLeft=4;spacingRight=4;overflow=hidden;rotatable=0;points=[[0,0.5],[1,0.5]];portConstraint=eastwest;" parent="2UWd0R9MiRfLyB3t6blX-8" vertex="1">
          <mxGeometry y="54" width="140" height="28" as="geometry" />
        </mxCell>
        <mxCell id="2UWd0R9MiRfLyB3t6blX-13" value="Program" style="html=1;" parent="1" vertex="1">
          <mxGeometry x="500" y="57" width="110" height="50" as="geometry" />
        </mxCell>
        <mxCell id="2UWd0R9MiRfLyB3t6blX-15" value="" style="endArrow=block;dashed=1;endFill=0;endSize=12;html=1;rounded=0;entryX=1;entryY=0.152;entryDx=0;entryDy=0;exitX=0;exitY=0.25;exitDx=0;exitDy=0;entryPerimeter=0;" parent="1" source="2UWd0R9MiRfLyB3t6blX-13" target="2UWd0R9MiRfLyB3t6blX-8" edge="1">
          <mxGeometry width="160" relative="1" as="geometry">
            <mxPoint x="330" y="300" as="sourcePoint" />
            <mxPoint x="490" y="300" as="targetPoint" />
            <Array as="points">
              <mxPoint x="450" y="70" />
              <mxPoint x="450" y="132" />
            </Array>
          </mxGeometry>
        </mxCell>
        <mxCell id="2UWd0R9MiRfLyB3t6blX-22" value="" style="endArrow=diamondThin;endFill=0;endSize=24;html=1;rounded=0;" parent="1" edge="1">
          <mxGeometry width="160" relative="1" as="geometry">
            <mxPoint x="560" y="160" as="sourcePoint" />
            <mxPoint x="560" y="110" as="targetPoint" />
          </mxGeometry>
        </mxCell>
        <mxCell id="2UWd0R9MiRfLyB3t6blX-23" value="*" style="text;html=1;strokeColor=none;fillColor=none;align=center;verticalAlign=middle;whiteSpace=wrap;rounded=0;fontSize=17;" parent="1" vertex="1">
          <mxGeometry x="440" y="107" width="60" height="30" as="geometry" />
        </mxCell>
        <mxCell id="2UWd0R9MiRfLyB3t6blX-24" value="" style="endArrow=open;endSize=12;dashed=1;html=1;rounded=0;fontSize=17;entryX=0;entryY=0.75;entryDx=0;entryDy=0;exitX=1.003;exitY=-0.018;exitDx=0;exitDy=0;exitPerimeter=0;entryPerimeter=0;" parent="1" source="krxHbP2sfhbJSF6yrtBJ-27" target="2OquBeiTaUIM5SdRCzM_-6" edge="1">
          <mxGeometry width="160" relative="1" as="geometry">
            <mxPoint x="630" y="263" as="sourcePoint" />
            <mxPoint x="940" y="262.5" as="targetPoint" />
          </mxGeometry>
        </mxCell>
        <mxCell id="2UWd0R9MiRfLyB3t6blX-25" value="&lt;font style=&quot;font-size: 13px;&quot;&gt;1&lt;/font&gt;" style="text;html=1;strokeColor=none;fillColor=none;align=center;verticalAlign=middle;whiteSpace=wrap;rounded=0;fontSize=17;" parent="1" vertex="1">
          <mxGeometry x="890" y="234" width="60" height="30" as="geometry" />
        </mxCell>
        <mxCell id="2UWd0R9MiRfLyB3t6blX-26" value="&lt;div&gt;&amp;lt;&amp;lt;Interface&amp;gt;&amp;gt;&lt;/div&gt;&lt;div&gt;Statement&lt;br&gt;&lt;/div&gt;" style="rounded=0;whiteSpace=wrap;html=1;" parent="1" vertex="1">
          <mxGeometry x="160" y="282" width="120" height="60" as="geometry" />
        </mxCell>
        <mxCell id="2UWd0R9MiRfLyB3t6blX-27" value="FuncDefinition" style="rounded=0;whiteSpace=wrap;html=1;" parent="1" vertex="1">
          <mxGeometry x="330" y="350" width="120" height="38" as="geometry" />
        </mxCell>
        <mxCell id="2UWd0R9MiRfLyB3t6blX-28" value="" style="endArrow=block;dashed=1;endFill=0;endSize=12;html=1;rounded=0;entryX=0.457;entryY=1.143;entryDx=0;entryDy=0;entryPerimeter=0;exitX=0.75;exitY=0;exitDx=0;exitDy=0;" parent="1" source="2UWd0R9MiRfLyB3t6blX-26" target="2UWd0R9MiRfLyB3t6blX-12" edge="1">
          <mxGeometry width="160" relative="1" as="geometry">
            <mxPoint x="304" y="260" as="sourcePoint" />
            <mxPoint x="390" y="142.46400000000006" as="targetPoint" />
            <Array as="points">
              <mxPoint x="250" y="260" />
              <mxPoint x="304" y="260" />
            </Array>
          </mxGeometry>
        </mxCell>
        <mxCell id="2UWd0R9MiRfLyB3t6blX-30" value="" style="endArrow=none;dashed=1;html=1;rounded=0;fontSize=13;entryX=0.25;entryY=0;entryDx=0;entryDy=0;" parent="1" target="2UWd0R9MiRfLyB3t6blX-27" edge="1">
          <mxGeometry width="50" height="50" relative="1" as="geometry">
            <mxPoint x="300" y="260" as="sourcePoint" />
            <mxPoint x="440" y="270" as="targetPoint" />
            <Array as="points">
              <mxPoint x="360" y="260" />
            </Array>
          </mxGeometry>
        </mxCell>
        <mxCell id="2UWd0R9MiRfLyB3t6blX-32" value="" style="endArrow=diamondThin;endFill=0;endSize=24;html=1;rounded=0;fontSize=13;entryX=0;entryY=0.5;entryDx=0;entryDy=0;exitX=0.5;exitY=1;exitDx=0;exitDy=0;" parent="1" source="2UWd0R9MiRfLyB3t6blX-26" target="2UWd0R9MiRfLyB3t6blX-27" edge="1">
          <mxGeometry width="160" relative="1" as="geometry">
            <mxPoint x="330" y="300" as="sourcePoint" />
            <mxPoint x="490" y="300" as="targetPoint" />
            <Array as="points">
              <mxPoint x="220" y="370" />
            </Array>
          </mxGeometry>
        </mxCell>
        <mxCell id="2UWd0R9MiRfLyB3t6blX-33" value="*" style="text;html=1;strokeColor=none;fillColor=none;align=center;verticalAlign=middle;whiteSpace=wrap;rounded=0;fontSize=17;" parent="1" vertex="1">
          <mxGeometry x="200" y="342" width="60" height="30" as="geometry" />
        </mxCell>
        <mxCell id="2UWd0R9MiRfLyB3t6blX-35" value="" style="endArrow=block;dashed=1;endFill=0;endSize=12;html=1;rounded=0;fontSize=13;exitX=0.75;exitY=0;exitDx=0;exitDy=0;entryX=0.464;entryY=1.077;entryDx=0;entryDy=0;entryPerimeter=0;" parent="1" source="2UWd0R9MiRfLyB3t6blX-27" target="krxHbP2sfhbJSF6yrtBJ-27" edge="1">
          <mxGeometry width="160" relative="1" as="geometry">
            <mxPoint x="330" y="300" as="sourcePoint" />
            <mxPoint x="565.0400000000004" y="308.98799999999983" as="targetPoint" />
            <Array as="points">
              <mxPoint x="420" y="330" />
              <mxPoint x="565" y="330" />
            </Array>
          </mxGeometry>
        </mxCell>
        <mxCell id="2UWd0R9MiRfLyB3t6blX-40" value="" style="endArrow=none;dashed=1;html=1;rounded=0;fontSize=13;entryX=0.5;entryY=0;entryDx=0;entryDy=0;" parent="1" edge="1">
          <mxGeometry width="50" height="50" relative="1" as="geometry">
            <mxPoint x="560" y="330" as="sourcePoint" />
            <mxPoint x="640" y="360" as="targetPoint" />
            <Array as="points">
              <mxPoint x="640" y="330" />
            </Array>
          </mxGeometry>
        </mxCell>
        <mxCell id="2UWd0R9MiRfLyB3t6blX-41" value="&lt;div&gt;Assignment&lt;/div&gt;" style="rounded=0;whiteSpace=wrap;html=1;" parent="1" vertex="1">
          <mxGeometry x="160" y="740" width="120" height="38" as="geometry" />
        </mxCell>
        <mxCell id="2UWd0R9MiRfLyB3t6blX-42" value="" style="endArrow=diamondThin;endFill=0;endSize=24;html=1;rounded=0;fontSize=13;entryX=0;entryY=0.25;entryDx=0;entryDy=0;exitX=-0.006;exitY=0.122;exitDx=0;exitDy=0;exitPerimeter=0;" parent="1" source="nMUlGTiB2CHpz4Iuv25U-42" target="2UWd0R9MiRfLyB3t6blX-41" edge="1">
          <mxGeometry width="160" relative="1" as="geometry">
            <mxPoint x="230" y="352" as="sourcePoint" />
            <mxPoint x="340" y="379" as="targetPoint" />
            <Array as="points">
              <mxPoint x="50" y="750" />
            </Array>
          </mxGeometry>
        </mxCell>
        <mxCell id="2UWd0R9MiRfLyB3t6blX-44" value="2" style="text;html=1;strokeColor=none;fillColor=none;align=center;verticalAlign=middle;whiteSpace=wrap;rounded=0;fontSize=13;" parent="1" vertex="1">
          <mxGeometry x="30" y="190" width="60" height="30" as="geometry" />
        </mxCell>
        <mxCell id="2UWd0R9MiRfLyB3t6blX-45" value="" style="endArrow=block;dashed=1;endFill=0;endSize=12;html=1;rounded=0;fontSize=13;entryX=0.25;entryY=1;entryDx=0;entryDy=0;" parent="1" target="2UWd0R9MiRfLyB3t6blX-26" edge="1">
          <mxGeometry width="160" relative="1" as="geometry">
            <mxPoint x="270" y="740" as="sourcePoint" />
            <mxPoint x="490" y="300" as="targetPoint" />
            <Array as="points">
              <mxPoint x="270" y="680" />
              <mxPoint x="270" y="570" />
              <mxPoint x="190" y="570" />
            </Array>
          </mxGeometry>
        </mxCell>
        <mxCell id="2UWd0R9MiRfLyB3t6blX-46" value="" style="endArrow=none;dashed=1;html=1;rounded=0;fontSize=13;" parent="1" edge="1">
          <mxGeometry width="50" height="50" relative="1" as="geometry">
            <mxPoint x="190" y="400" as="sourcePoint" />
            <mxPoint x="500" y="399" as="targetPoint" />
          </mxGeometry>
        </mxCell>
        <mxCell id="2UWd0R9MiRfLyB3t6blX-47" value="UnaryMinus" style="rounded=0;whiteSpace=wrap;html=1;fontSize=13;" parent="1" vertex="1">
          <mxGeometry x="-230" y="200" width="80" height="30" as="geometry" />
        </mxCell>
        <mxCell id="2UWd0R9MiRfLyB3t6blX-48" value="Cast" style="rounded=0;whiteSpace=wrap;html=1;fontSize=13;" parent="1" vertex="1">
          <mxGeometry x="-250" y="450" width="80" height="34" as="geometry" />
        </mxCell>
        <mxCell id="2UWd0R9MiRfLyB3t6blX-59" value="Arithmetic" style="swimlane;fontStyle=0;childLayout=stackLayout;horizontal=1;startSize=26;horizontalStack=0;resizeParent=1;resizeParentMax=0;resizeLast=0;collapsible=1;marginBottom=0;" parent="1" vertex="1">
          <mxGeometry x="-230" y="116" width="110" height="54" as="geometry" />
        </mxCell>
        <mxCell id="2UWd0R9MiRfLyB3t6blX-60" value="operator:string" style="text;align=left;verticalAlign=top;spacingLeft=4;spacingRight=4;overflow=hidden;rotatable=0;points=[[0,0.5],[1,0.5]];portConstraint=eastwest;" parent="2UWd0R9MiRfLyB3t6blX-59" vertex="1">
          <mxGeometry y="26" width="110" height="28" as="geometry" />
        </mxCell>
        <mxCell id="2UWd0R9MiRfLyB3t6blX-62" value="" style="endArrow=diamondThin;endFill=0;endSize=24;html=1;rounded=0;fontSize=13;entryX=1;entryY=0.25;entryDx=0;entryDy=0;exitX=-0.002;exitY=0.342;exitDx=0;exitDy=0;exitPerimeter=0;" parent="1" source="krxHbP2sfhbJSF6yrtBJ-1" target="2UWd0R9MiRfLyB3t6blX-59" edge="1">
          <mxGeometry width="160" relative="1" as="geometry">
            <mxPoint x="10" y="127" as="sourcePoint" />
            <mxPoint x="-100" y="130" as="targetPoint" />
          </mxGeometry>
        </mxCell>
        <mxCell id="2UWd0R9MiRfLyB3t6blX-64" value="" style="endArrow=diamondThin;endFill=0;endSize=24;html=1;rounded=0;fontSize=13;entryX=1;entryY=0.25;entryDx=0;entryDy=0;exitX=0.836;exitY=1.01;exitDx=0;exitDy=0;exitPerimeter=0;" parent="1" source="2UWd0R9MiRfLyB3t6blX-65" target="2UWd0R9MiRfLyB3t6blX-47" edge="1">
          <mxGeometry width="160" relative="1" as="geometry">
            <mxPoint x="22.38000000000011" y="179.99" as="sourcePoint" />
            <mxPoint x="-140" y="190" as="targetPoint" />
            <Array as="points">
              <mxPoint x="-30" y="180" />
              <mxPoint x="-80" y="180" />
              <mxPoint x="-80" y="208" />
            </Array>
          </mxGeometry>
        </mxCell>
        <mxCell id="2UWd0R9MiRfLyB3t6blX-65" value="1" style="text;html=1;strokeColor=none;fillColor=none;align=center;verticalAlign=middle;whiteSpace=wrap;rounded=0;fontSize=13;" parent="1" vertex="1">
          <mxGeometry x="-40" y="150" width="60" height="30" as="geometry" />
        </mxCell>
        <mxCell id="2UWd0R9MiRfLyB3t6blX-71" value="" style="endArrow=block;dashed=1;endFill=0;endSize=12;html=1;rounded=0;fontSize=13;entryX=0.105;entryY=1.036;entryDx=0;entryDy=0;exitX=1;exitY=0.5;exitDx=0;exitDy=0;entryPerimeter=0;" parent="1" source="V8tE0jP70gdgCO8X672E-8" target="krxHbP2sfhbJSF6yrtBJ-3" edge="1">
          <mxGeometry width="160" relative="1" as="geometry">
            <mxPoint x="-155" y="261.5" as="sourcePoint" />
            <mxPoint x="240" y="340" as="targetPoint" />
            <Array as="points">
              <mxPoint x="30" y="280" />
            </Array>
          </mxGeometry>
        </mxCell>
        <mxCell id="2UWd0R9MiRfLyB3t6blX-72" value="" style="endArrow=none;dashed=1;html=1;rounded=0;fontSize=13;" parent="1" source="V8tE0jP70gdgCO8X672E-11" edge="1">
          <mxGeometry width="50" height="50" relative="1" as="geometry">
            <mxPoint x="-154" y="323" as="sourcePoint" />
            <mxPoint x="30" y="260" as="targetPoint" />
            <Array as="points">
              <mxPoint x="30" y="360" />
            </Array>
          </mxGeometry>
        </mxCell>
        <mxCell id="2UWd0R9MiRfLyB3t6blX-73" value="" style="endArrow=none;dashed=1;html=1;rounded=0;fontSize=13;exitX=1;exitY=0.5;exitDx=0;exitDy=0;" parent="1" source="V8tE0jP70gdgCO8X672E-12" edge="1">
          <mxGeometry width="50" height="50" relative="1" as="geometry">
            <mxPoint x="-150" y="375" as="sourcePoint" />
            <mxPoint x="30" y="360" as="targetPoint" />
            <Array as="points">
              <mxPoint x="30" y="410" />
            </Array>
          </mxGeometry>
        </mxCell>
        <mxCell id="2UWd0R9MiRfLyB3t6blX-74" value="" style="endArrow=none;dashed=1;html=1;rounded=0;fontSize=13;exitX=1;exitY=0.5;exitDx=0;exitDy=0;" parent="1" source="2UWd0R9MiRfLyB3t6blX-48" edge="1">
          <mxGeometry width="50" height="50" relative="1" as="geometry">
            <mxPoint x="-135" y="343" as="sourcePoint" />
            <mxPoint x="30" y="400" as="targetPoint" />
            <Array as="points">
              <mxPoint x="30" y="467" />
            </Array>
          </mxGeometry>
        </mxCell>
        <mxCell id="5au-OSd6G3MzPt95XfjI-12" value="" style="endArrow=none;dashed=1;html=1;rounded=0;fontSize=13;exitX=1;exitY=0.5;exitDx=0;exitDy=0;" parent="1" source="nMUlGTiB2CHpz4Iuv25U-9" edge="1">
          <mxGeometry width="50" height="50" relative="1" as="geometry">
            <mxPoint x="-149" y="525" as="sourcePoint" />
            <mxPoint x="30" y="540" as="targetPoint" />
            <Array as="points">
              <mxPoint x="30" y="603" />
            </Array>
          </mxGeometry>
        </mxCell>
        <mxCell id="5au-OSd6G3MzPt95XfjI-16" value="" style="endArrow=block;dashed=1;endFill=0;endSize=12;html=1;rounded=0;exitX=0.5;exitY=0;exitDx=0;exitDy=0;entryX=0.396;entryY=1.006;entryDx=0;entryDy=0;entryPerimeter=0;" parent="1" edge="1">
          <mxGeometry width="160" relative="1" as="geometry">
            <mxPoint x="890" y="623.58" as="sourcePoint" />
            <mxPoint x="999.4000000000005" y="531.9999999999995" as="targetPoint" />
            <Array as="points">
              <mxPoint x="890" y="571.58" />
              <mxPoint x="1000" y="571.58" />
            </Array>
          </mxGeometry>
        </mxCell>
        <mxCell id="5au-OSd6G3MzPt95XfjI-17" value="" style="endArrow=none;dashed=1;html=1;rounded=0;exitX=0.452;exitY=0.018;exitDx=0;exitDy=0;exitPerimeter=0;" parent="1" edge="1">
          <mxGeometry width="50" height="50" relative="1" as="geometry">
            <mxPoint x="1029.7199999999998" y="624.9360000000001" as="sourcePoint" />
            <mxPoint x="1030" y="572" as="targetPoint" />
          </mxGeometry>
        </mxCell>
        <mxCell id="5au-OSd6G3MzPt95XfjI-19" value="" style="endArrow=none;dashed=1;html=1;rounded=0;" parent="1" edge="1">
          <mxGeometry width="50" height="50" relative="1" as="geometry">
            <mxPoint x="1000" y="572" as="sourcePoint" />
            <mxPoint x="1330" y="572" as="targetPoint" />
          </mxGeometry>
        </mxCell>
        <mxCell id="5au-OSd6G3MzPt95XfjI-20" value="" style="endArrow=none;dashed=1;html=1;rounded=0;" parent="1" edge="1">
          <mxGeometry width="50" height="50" relative="1" as="geometry">
            <mxPoint x="1170" y="622" as="sourcePoint" />
            <mxPoint x="1170" y="572" as="targetPoint" />
          </mxGeometry>
        </mxCell>
        <mxCell id="5au-OSd6G3MzPt95XfjI-21" value="" style="endArrow=none;dashed=1;html=1;rounded=0;" parent="1" edge="1">
          <mxGeometry width="50" height="50" relative="1" as="geometry">
            <mxPoint x="1310" y="622" as="sourcePoint" />
            <mxPoint x="1310" y="572" as="targetPoint" />
          </mxGeometry>
        </mxCell>
        <mxCell id="5au-OSd6G3MzPt95XfjI-22" value="ArrayType" style="swimlane;fontStyle=0;childLayout=stackLayout;horizontal=1;startSize=26;fillColor=none;horizontalStack=0;resizeParent=1;resizeParentMax=0;resizeLast=0;collapsible=1;marginBottom=0;" parent="1" vertex="1">
          <mxGeometry x="1260" y="624" width="110" height="52" as="geometry" />
        </mxCell>
        <mxCell id="5au-OSd6G3MzPt95XfjI-23" value="size:int" style="text;strokeColor=none;fillColor=none;align=left;verticalAlign=top;spacingLeft=4;spacingRight=4;overflow=hidden;rotatable=0;points=[[0,0.5],[1,0.5]];portConstraint=eastwest;" parent="5au-OSd6G3MzPt95XfjI-22" vertex="1">
          <mxGeometry y="26" width="110" height="26" as="geometry" />
        </mxCell>
        <mxCell id="5au-OSd6G3MzPt95XfjI-26" value="Conditional" style="rounded=0;whiteSpace=wrap;html=1;" parent="1" vertex="1">
          <mxGeometry x="330" y="576" width="100" height="30" as="geometry" />
        </mxCell>
        <mxCell id="5au-OSd6G3MzPt95XfjI-28" value="Input" style="rounded=0;whiteSpace=wrap;html=1;" parent="1" vertex="1">
          <mxGeometry x="330" y="450" width="100" height="30" as="geometry" />
        </mxCell>
        <mxCell id="5au-OSd6G3MzPt95XfjI-30" value="While" style="rounded=0;whiteSpace=wrap;html=1;" parent="1" vertex="1">
          <mxGeometry x="60" y="640" width="100" height="30" as="geometry" />
        </mxCell>
        <mxCell id="5au-OSd6G3MzPt95XfjI-31" value="Return" style="rounded=0;whiteSpace=wrap;html=1;" parent="1" vertex="1">
          <mxGeometry x="450" y="450" width="100" height="30" as="geometry" />
        </mxCell>
        <mxCell id="5au-OSd6G3MzPt95XfjI-33" value="" style="endArrow=none;dashed=1;html=1;rounded=0;entryX=0.5;entryY=0;entryDx=0;entryDy=0;" parent="1" target="5au-OSd6G3MzPt95XfjI-41" edge="1">
          <mxGeometry width="50" height="50" relative="1" as="geometry">
            <mxPoint x="260" y="400" as="sourcePoint" />
            <mxPoint x="250" y="410" as="targetPoint" />
          </mxGeometry>
        </mxCell>
        <mxCell id="5au-OSd6G3MzPt95XfjI-34" value="" style="endArrow=none;dashed=1;html=1;rounded=0;" parent="1" target="5au-OSd6G3MzPt95XfjI-28" edge="1">
          <mxGeometry width="50" height="50" relative="1" as="geometry">
            <mxPoint x="380" y="400" as="sourcePoint" />
            <mxPoint x="390" y="450" as="targetPoint" />
          </mxGeometry>
        </mxCell>
        <mxCell id="5au-OSd6G3MzPt95XfjI-38" value="" style="endArrow=none;dashed=1;html=1;rounded=0;entryX=0.5;entryY=0;entryDx=0;entryDy=0;" parent="1" target="5au-OSd6G3MzPt95XfjI-31" edge="1">
          <mxGeometry width="50" height="50" relative="1" as="geometry">
            <mxPoint x="500" y="400" as="sourcePoint" />
            <mxPoint x="320" y="550" as="targetPoint" />
          </mxGeometry>
        </mxCell>
        <mxCell id="5au-OSd6G3MzPt95XfjI-41" value="Print" style="rounded=0;whiteSpace=wrap;html=1;" parent="1" vertex="1">
          <mxGeometry x="210" y="450" width="100" height="30" as="geometry" />
        </mxCell>
        <mxCell id="5au-OSd6G3MzPt95XfjI-42" value="" style="endArrow=diamondThin;endFill=0;endSize=24;html=1;rounded=0;entryX=0.4;entryY=0;entryDx=0;entryDy=0;exitX=0;exitY=0.5;exitDx=0;exitDy=0;entryPerimeter=0;" parent="1" source="2UWd0R9MiRfLyB3t6blX-26" target="5au-OSd6G3MzPt95XfjI-30" edge="1">
          <mxGeometry width="160" relative="1" as="geometry">
            <mxPoint x="100" y="330" as="sourcePoint" />
            <mxPoint x="470" y="550" as="targetPoint" />
            <Array as="points">
              <mxPoint x="100" y="312" />
            </Array>
          </mxGeometry>
        </mxCell>
        <mxCell id="5au-OSd6G3MzPt95XfjI-44" value="" style="endArrow=diamondThin;endFill=0;endSize=24;html=1;rounded=0;entryX=0.25;entryY=0;entryDx=0;entryDy=0;" parent="1" target="5au-OSd6G3MzPt95XfjI-26" edge="1">
          <mxGeometry width="160" relative="1" as="geometry">
            <mxPoint x="100" y="576" as="sourcePoint" />
            <mxPoint x="470" y="490" as="targetPoint" />
            <Array as="points">
              <mxPoint x="100" y="540" />
              <mxPoint x="355" y="540" />
            </Array>
          </mxGeometry>
        </mxCell>
        <mxCell id="5au-OSd6G3MzPt95XfjI-45" value="1...*" style="text;html=1;strokeColor=none;fillColor=none;align=center;verticalAlign=middle;whiteSpace=wrap;rounded=0;fontSize=11;" parent="1" vertex="1">
          <mxGeometry x="120" y="290" width="60" height="30" as="geometry" />
        </mxCell>
        <mxCell id="nMUlGTiB2CHpz4Iuv25U-2" value="Variable" style="swimlane;fontStyle=0;childLayout=stackLayout;horizontal=1;startSize=26;horizontalStack=0;resizeParent=1;resizeParentMax=0;resizeLast=0;collapsible=1;marginBottom=0;" parent="1" vertex="1">
          <mxGeometry x="-250" y="650" width="110" height="54" as="geometry" />
        </mxCell>
        <mxCell id="nMUlGTiB2CHpz4Iuv25U-3" value="name:string" style="text;align=left;verticalAlign=top;spacingLeft=4;spacingRight=4;overflow=hidden;rotatable=0;points=[[0,0.5],[1,0.5]];portConstraint=eastwest;" parent="nMUlGTiB2CHpz4Iuv25U-2" vertex="1">
          <mxGeometry y="26" width="110" height="28" as="geometry" />
        </mxCell>
        <mxCell id="nMUlGTiB2CHpz4Iuv25U-5" value="" style="endArrow=none;dashed=1;html=1;rounded=0;fontSize=13;exitX=1.014;exitY=0.071;exitDx=0;exitDy=0;exitPerimeter=0;" parent="1" source="nMUlGTiB2CHpz4Iuv25U-3" edge="1">
          <mxGeometry width="50" height="50" relative="1" as="geometry">
            <mxPoint x="-139" y="535" as="sourcePoint" />
            <mxPoint x="30" y="600" as="targetPoint" />
            <Array as="points">
              <mxPoint x="30" y="678" />
            </Array>
          </mxGeometry>
        </mxCell>
        <mxCell id="nMUlGTiB2CHpz4Iuv25U-8" value="ArrayAccess" style="rounded=0;whiteSpace=wrap;html=1;fontSize=13;" parent="1" vertex="1">
          <mxGeometry x="-250" y="730" width="91" height="30" as="geometry" />
        </mxCell>
        <mxCell id="nMUlGTiB2CHpz4Iuv25U-9" value="Comparator" style="swimlane;fontStyle=0;childLayout=stackLayout;horizontal=1;startSize=26;horizontalStack=0;resizeParent=1;resizeParentMax=0;resizeLast=0;collapsible=1;marginBottom=0;" parent="1" vertex="1">
          <mxGeometry x="-250" y="576" width="110" height="54" as="geometry" />
        </mxCell>
        <mxCell id="nMUlGTiB2CHpz4Iuv25U-10" value="operator:string" style="text;align=left;verticalAlign=top;spacingLeft=4;spacingRight=4;overflow=hidden;rotatable=0;points=[[0,0.5],[1,0.5]];portConstraint=eastwest;" parent="nMUlGTiB2CHpz4Iuv25U-9" vertex="1">
          <mxGeometry y="26" width="110" height="28" as="geometry" />
        </mxCell>
        <mxCell id="nMUlGTiB2CHpz4Iuv25U-11" value="Logical" style="swimlane;fontStyle=0;childLayout=stackLayout;horizontal=1;startSize=26;horizontalStack=0;resizeParent=1;resizeParentMax=0;resizeLast=0;collapsible=1;marginBottom=0;" parent="1" vertex="1">
          <mxGeometry x="-250" y="504" width="110" height="54" as="geometry" />
        </mxCell>
        <mxCell id="nMUlGTiB2CHpz4Iuv25U-12" value="operator:string" style="text;align=left;verticalAlign=top;spacingLeft=4;spacingRight=4;overflow=hidden;rotatable=0;points=[[0,0.5],[1,0.5]];portConstraint=eastwest;" parent="nMUlGTiB2CHpz4Iuv25U-11" vertex="1">
          <mxGeometry y="26" width="110" height="28" as="geometry" />
        </mxCell>
        <mxCell id="nMUlGTiB2CHpz4Iuv25U-15" value="0..*" style="text;html=1;strokeColor=none;fillColor=none;align=center;verticalAlign=middle;whiteSpace=wrap;rounded=0;fontSize=14;" parent="1" vertex="1">
          <mxGeometry x="80" y="65" width="60" height="30" as="geometry" />
        </mxCell>
        <mxCell id="nMUlGTiB2CHpz4Iuv25U-18" value="" style="endArrow=diamondThin;endFill=0;endSize=24;html=1;rounded=0;fontSize=14;entryX=0;entryY=0.5;entryDx=0;entryDy=0;" parent="1" target="nMUlGTiB2CHpz4Iuv25U-8" edge="1">
          <mxGeometry width="160" relative="1" as="geometry">
            <mxPoint x="-40" y="130" as="sourcePoint" />
            <mxPoint x="310" y="390" as="targetPoint" />
            <Array as="points">
              <mxPoint x="-40" y="100" />
              <mxPoint x="-380" y="100" />
              <mxPoint x="-380" y="745" />
            </Array>
          </mxGeometry>
        </mxCell>
        <mxCell id="nMUlGTiB2CHpz4Iuv25U-19" value="StructAccess" style="swimlane;fontStyle=0;childLayout=stackLayout;horizontal=1;startSize=26;horizontalStack=0;resizeParent=1;resizeParentMax=0;resizeLast=0;collapsible=1;marginBottom=0;" parent="1" vertex="1">
          <mxGeometry x="-249" y="778" width="110" height="54" as="geometry" />
        </mxCell>
        <mxCell id="nMUlGTiB2CHpz4Iuv25U-20" value="name:string" style="text;align=left;verticalAlign=top;spacingLeft=4;spacingRight=4;overflow=hidden;rotatable=0;points=[[0,0.5],[1,0.5]];portConstraint=eastwest;" parent="nMUlGTiB2CHpz4Iuv25U-19" vertex="1">
          <mxGeometry y="26" width="110" height="28" as="geometry" />
        </mxCell>
        <mxCell id="nMUlGTiB2CHpz4Iuv25U-21" value="" style="endArrow=diamondThin;endFill=0;endSize=24;html=1;rounded=0;fontSize=14;entryX=0;entryY=0.5;entryDx=0;entryDy=0;" parent="1" target="nMUlGTiB2CHpz4Iuv25U-19" edge="1">
          <mxGeometry width="160" relative="1" as="geometry">
            <mxPoint x="-80" y="180" as="sourcePoint" />
            <mxPoint x="310" y="390" as="targetPoint" />
            <Array as="points">
              <mxPoint x="-350" y="180" />
              <mxPoint x="-350" y="805" />
            </Array>
          </mxGeometry>
        </mxCell>
        <mxCell id="nMUlGTiB2CHpz4Iuv25U-23" value="" style="endArrow=none;dashed=1;html=1;rounded=0;fontSize=14;exitX=1;exitY=0.5;exitDx=0;exitDy=0;" parent="1" source="nMUlGTiB2CHpz4Iuv25U-8" edge="1">
          <mxGeometry width="50" height="50" relative="1" as="geometry">
            <mxPoint x="210" y="410" as="sourcePoint" />
            <mxPoint x="30" y="680" as="targetPoint" />
            <Array as="points">
              <mxPoint x="30" y="745" />
            </Array>
          </mxGeometry>
        </mxCell>
        <mxCell id="nMUlGTiB2CHpz4Iuv25U-24" value="" style="endArrow=none;dashed=1;html=1;rounded=0;fontSize=14;exitX=1;exitY=-0.036;exitDx=0;exitDy=0;exitPerimeter=0;" parent="1" source="nMUlGTiB2CHpz4Iuv25U-20" edge="1">
          <mxGeometry width="50" height="50" relative="1" as="geometry">
            <mxPoint x="210" y="410" as="sourcePoint" />
            <mxPoint x="30" y="740" as="targetPoint" />
            <Array as="points">
              <mxPoint x="30" y="803" />
            </Array>
          </mxGeometry>
        </mxCell>
        <mxCell id="nMUlGTiB2CHpz4Iuv25U-26" value="FunctionInvocation" style="rounded=0;whiteSpace=wrap;html=1;fontSize=13;" parent="1" vertex="1">
          <mxGeometry x="-260" y="850" width="130" height="30" as="geometry" />
        </mxCell>
        <mxCell id="nMUlGTiB2CHpz4Iuv25U-27" value="" style="endArrow=diamondThin;endFill=1;endSize=24;html=1;rounded=0;fontSize=14;entryX=0;entryY=0.5;entryDx=0;entryDy=0;exitX=0.734;exitY=-0.007;exitDx=0;exitDy=0;exitPerimeter=0;" parent="1" source="krxHbP2sfhbJSF6yrtBJ-1" target="nMUlGTiB2CHpz4Iuv25U-26" edge="1">
          <mxGeometry width="160" relative="1" as="geometry">
            <mxPoint x="160" y="155" as="sourcePoint" />
            <mxPoint x="310" y="640" as="targetPoint" />
            <Array as="points">
              <mxPoint x="150" y="20" />
              <mxPoint x="-440" y="20" />
              <mxPoint x="-440" y="865" />
            </Array>
          </mxGeometry>
        </mxCell>
        <mxCell id="nMUlGTiB2CHpz4Iuv25U-28" value="" style="endArrow=diamondThin;endFill=1;endSize=24;html=1;rounded=0;fontSize=14;entryX=0.25;entryY=1;entryDx=0;entryDy=0;exitX=0;exitY=0.25;exitDx=0;exitDy=0;" parent="1" source="nMUlGTiB2CHpz4Iuv25U-2" target="nMUlGTiB2CHpz4Iuv25U-26" edge="1">
          <mxGeometry width="160" relative="1" as="geometry">
            <mxPoint x="150" y="520" as="sourcePoint" />
            <mxPoint x="310" y="520" as="targetPoint" />
            <Array as="points">
              <mxPoint x="-400" y="664" />
              <mxPoint x="-400" y="920" />
              <mxPoint x="-227" y="920" />
            </Array>
          </mxGeometry>
        </mxCell>
        <mxCell id="nMUlGTiB2CHpz4Iuv25U-29" value="Function" style="text;html=1;strokeColor=none;fillColor=none;align=center;verticalAlign=middle;whiteSpace=wrap;rounded=0;fontSize=12;" parent="1" vertex="1">
          <mxGeometry x="-320" y="640" width="60" height="30" as="geometry" />
        </mxCell>
        <mxCell id="nMUlGTiB2CHpz4Iuv25U-30" value="" style="endArrow=diamondThin;endFill=1;endSize=24;html=1;rounded=0;fontSize=12;entryX=0;entryY=0.75;entryDx=0;entryDy=0;exitX=0.5;exitY=0;exitDx=0;exitDy=0;" parent="1" source="2OquBeiTaUIM5SdRCzM_-1" target="2UWd0R9MiRfLyB3t6blX-48" edge="1">
          <mxGeometry width="160" relative="1" as="geometry">
            <mxPoint x="1000" y="220" as="sourcePoint" />
            <mxPoint x="310" y="270" as="targetPoint" />
            <Array as="points">
              <mxPoint x="1075" y="40" />
              <mxPoint x="-280" y="40" />
              <mxPoint x="-280" y="476" />
            </Array>
          </mxGeometry>
        </mxCell>
        <mxCell id="nMUlGTiB2CHpz4Iuv25U-31" value="type" style="text;html=1;strokeColor=none;fillColor=none;align=center;verticalAlign=middle;whiteSpace=wrap;rounded=0;fontSize=12;" parent="1" vertex="1">
          <mxGeometry x="1020" y="183" width="60" height="30" as="geometry" />
        </mxCell>
        <mxCell id="nMUlGTiB2CHpz4Iuv25U-32" value="parameters" style="text;html=1;strokeColor=none;fillColor=none;align=center;verticalAlign=middle;whiteSpace=wrap;rounded=0;fontSize=12;" parent="1" vertex="1">
          <mxGeometry x="160" y="67" width="60" height="30" as="geometry" />
        </mxCell>
        <mxCell id="nMUlGTiB2CHpz4Iuv25U-34" style="edgeStyle=orthogonalEdgeStyle;rounded=0;orthogonalLoop=1;jettySize=auto;html=1;exitX=0.5;exitY=1;exitDx=0;exitDy=0;fontSize=12;" parent="1" source="5au-OSd6G3MzPt95XfjI-26" target="5au-OSd6G3MzPt95XfjI-26" edge="1">
          <mxGeometry relative="1" as="geometry" />
        </mxCell>
        <mxCell id="nMUlGTiB2CHpz4Iuv25U-36" value="" style="endArrow=diamondThin;endFill=0;endSize=24;html=1;rounded=0;fontSize=12;entryX=0.5;entryY=1;entryDx=0;entryDy=0;exitX=0.632;exitY=1.036;exitDx=0;exitDy=0;exitPerimeter=0;" parent="1" source="krxHbP2sfhbJSF6yrtBJ-3" target="5au-OSd6G3MzPt95XfjI-41" edge="1">
          <mxGeometry width="160" relative="1" as="geometry">
            <mxPoint x="300" y="530" as="sourcePoint" />
            <mxPoint x="460" y="530" as="targetPoint" />
            <Array as="points">
              <mxPoint x="130" y="520" />
              <mxPoint x="260" y="520" />
            </Array>
          </mxGeometry>
        </mxCell>
        <mxCell id="nMUlGTiB2CHpz4Iuv25U-37" value="" style="endArrow=diamondThin;endFill=0;endSize=24;html=1;rounded=0;fontSize=12;entryX=0.5;entryY=1;entryDx=0;entryDy=0;" parent="1" target="5au-OSd6G3MzPt95XfjI-28" edge="1">
          <mxGeometry width="160" relative="1" as="geometry">
            <mxPoint x="260" y="520" as="sourcePoint" />
            <mxPoint x="460" y="530" as="targetPoint" />
            <Array as="points">
              <mxPoint x="380" y="520" />
            </Array>
          </mxGeometry>
        </mxCell>
        <mxCell id="nMUlGTiB2CHpz4Iuv25U-38" value="" style="endArrow=diamondThin;endFill=0;endSize=24;html=1;rounded=0;fontSize=12;entryX=0.5;entryY=1;entryDx=0;entryDy=0;" parent="1" target="5au-OSd6G3MzPt95XfjI-31" edge="1">
          <mxGeometry width="160" relative="1" as="geometry">
            <mxPoint x="240" y="600" as="sourcePoint" />
            <mxPoint x="460" y="530" as="targetPoint" />
            <Array as="points">
              <mxPoint x="240" y="670" />
              <mxPoint x="500" y="670" />
            </Array>
          </mxGeometry>
        </mxCell>
        <mxCell id="nMUlGTiB2CHpz4Iuv25U-39" value="1..*" style="text;html=1;strokeColor=none;fillColor=none;align=center;verticalAlign=middle;whiteSpace=wrap;rounded=0;fontSize=13;" parent="1" vertex="1">
          <mxGeometry x="90" y="190" width="60" height="30" as="geometry" />
        </mxCell>
        <mxCell id="nMUlGTiB2CHpz4Iuv25U-40" value="" style="endArrow=diamondThin;endFill=0;endSize=24;html=1;rounded=0;fontSize=12;entryX=0;entryY=0.75;entryDx=0;entryDy=0;exitX=0.342;exitY=1.012;exitDx=0;exitDy=0;exitPerimeter=0;" parent="1" source="krxHbP2sfhbJSF6yrtBJ-3" target="5au-OSd6G3MzPt95XfjI-26" edge="1">
          <mxGeometry width="160" relative="1" as="geometry">
            <mxPoint x="110" y="470" as="sourcePoint" />
            <mxPoint x="270" y="470" as="targetPoint" />
            <Array as="points">
              <mxPoint x="75" y="599" />
            </Array>
          </mxGeometry>
        </mxCell>
        <mxCell id="nMUlGTiB2CHpz4Iuv25U-42" value="1" style="text;html=1;strokeColor=none;fillColor=none;align=center;verticalAlign=middle;whiteSpace=wrap;rounded=0;fontSize=13;" parent="1" vertex="1">
          <mxGeometry x="50" y="190" width="60" height="30" as="geometry" />
        </mxCell>
        <mxCell id="nMUlGTiB2CHpz4Iuv25U-43" value="" style="endArrow=diamondThin;endFill=0;endSize=24;html=1;rounded=0;fontSize=12;entryX=0.796;entryY=-0.007;entryDx=0;entryDy=0;entryPerimeter=0;" parent="1" target="5au-OSd6G3MzPt95XfjI-26" edge="1">
          <mxGeometry width="160" relative="1" as="geometry">
            <mxPoint x="350" y="540" as="sourcePoint" />
            <mxPoint x="270" y="470" as="targetPoint" />
            <Array as="points">
              <mxPoint x="410" y="540" />
            </Array>
          </mxGeometry>
        </mxCell>
        <mxCell id="nMUlGTiB2CHpz4Iuv25U-44" value="else" style="text;html=1;strokeColor=none;fillColor=none;align=center;verticalAlign=middle;whiteSpace=wrap;rounded=0;fontSize=12;" parent="1" vertex="1">
          <mxGeometry x="400" y="546" width="60" height="30" as="geometry" />
        </mxCell>
        <mxCell id="nMUlGTiB2CHpz4Iuv25U-45" value="if" style="text;html=1;strokeColor=none;fillColor=none;align=center;verticalAlign=middle;whiteSpace=wrap;rounded=0;fontSize=12;" parent="1" vertex="1">
          <mxGeometry x="340" y="546" width="60" height="30" as="geometry" />
        </mxCell>
        <mxCell id="nMUlGTiB2CHpz4Iuv25U-46" value="" style="endArrow=diamondThin;endFill=0;endSize=24;html=1;rounded=0;fontSize=12;entryX=0.75;entryY=0;entryDx=0;entryDy=0;" parent="1" target="5au-OSd6G3MzPt95XfjI-30" edge="1">
          <mxGeometry width="160" relative="1" as="geometry">
            <mxPoint x="135" y="600" as="sourcePoint" />
            <mxPoint x="150" y="420" as="targetPoint" />
          </mxGeometry>
        </mxCell>
        <mxCell id="nMUlGTiB2CHpz4Iuv25U-47" value="&lt;i&gt;Singlenton&lt;/i&gt;&lt;br&gt;IntType" style="rounded=0;whiteSpace=wrap;html=1;" parent="1" vertex="1">
          <mxGeometry x="850" y="626" width="100" height="38" as="geometry" />
        </mxCell>
        <mxCell id="nMUlGTiB2CHpz4Iuv25U-48" value="&lt;i&gt;Singlenton&lt;/i&gt;&lt;br&gt;DoubleType" style="rounded=0;whiteSpace=wrap;html=1;" parent="1" vertex="1">
          <mxGeometry x="980" y="624" width="100" height="38" as="geometry" />
        </mxCell>
        <mxCell id="nMUlGTiB2CHpz4Iuv25U-49" value="&lt;i&gt;Singlenton&lt;/i&gt;&lt;br&gt;CharType" style="rounded=0;whiteSpace=wrap;html=1;" parent="1" vertex="1">
          <mxGeometry x="1120" y="624" width="100" height="38" as="geometry" />
        </mxCell>
        <mxCell id="nMUlGTiB2CHpz4Iuv25U-51" value="VoidType" style="rounded=0;whiteSpace=wrap;html=1;" parent="1" vertex="1">
          <mxGeometry x="1410" y="624" width="100" height="38" as="geometry" />
        </mxCell>
        <mxCell id="nMUlGTiB2CHpz4Iuv25U-52" value="" style="endArrow=none;dashed=1;html=1;rounded=0;fontSize=11;exitX=0.5;exitY=0;exitDx=0;exitDy=0;" parent="1" source="nMUlGTiB2CHpz4Iuv25U-51" edge="1">
          <mxGeometry width="50" height="50" relative="1" as="geometry">
            <mxPoint x="1060" y="672" as="sourcePoint" />
            <mxPoint x="1330" y="572" as="targetPoint" />
            <Array as="points">
              <mxPoint x="1460" y="572" />
            </Array>
          </mxGeometry>
        </mxCell>
        <mxCell id="nMUlGTiB2CHpz4Iuv25U-53" value="" style="endArrow=diamondThin;endFill=1;endSize=24;html=1;rounded=0;fontSize=11;entryX=0.536;entryY=1.077;entryDx=0;entryDy=0;entryPerimeter=0;exitX=1;exitY=0.5;exitDx=0;exitDy=0;" parent="1" source="2OquBeiTaUIM5SdRCzM_-8" target="5au-OSd6G3MzPt95XfjI-23" edge="1">
          <mxGeometry width="160" relative="1" as="geometry">
            <mxPoint x="1090" y="480.0300000000002" as="sourcePoint" />
            <mxPoint x="1170" y="640" as="targetPoint" />
            <Array as="points">
              <mxPoint x="1920" y="308" />
              <mxPoint x="1920" y="740" />
              <mxPoint x="1319" y="740" />
            </Array>
          </mxGeometry>
        </mxCell>
        <mxCell id="nMUlGTiB2CHpz4Iuv25U-57" value="&lt;font style=&quot;font-size: 13px;&quot;&gt;1&lt;/font&gt;" style="text;html=1;strokeColor=none;fillColor=none;align=center;verticalAlign=middle;whiteSpace=wrap;rounded=0;fontSize=17;" parent="1" vertex="1">
          <mxGeometry x="1185" y="300" width="60" height="30" as="geometry" />
        </mxCell>
        <mxCell id="nMUlGTiB2CHpz4Iuv25U-58" value="" style="endArrow=none;dashed=1;html=1;rounded=0;fontSize=11;exitX=0.5;exitY=0;exitDx=0;exitDy=0;" parent="1" edge="1">
          <mxGeometry width="50" height="50" relative="1" as="geometry">
            <mxPoint x="1605" y="624" as="sourcePoint" />
            <mxPoint x="1460" y="572" as="targetPoint" />
            <Array as="points">
              <mxPoint x="1605" y="572" />
            </Array>
          </mxGeometry>
        </mxCell>
        <mxCell id="nMUlGTiB2CHpz4Iuv25U-59" value="" style="endArrow=none;dashed=1;html=1;rounded=0;fontSize=11;exitX=0.5;exitY=0;exitDx=0;exitDy=0;" parent="1" source="3YkmplcBCZs07POEgJ4Y-6" edge="1">
          <mxGeometry width="50" height="50" relative="1" as="geometry">
            <mxPoint x="2115" y="371.5" as="sourcePoint" />
            <mxPoint x="1760" y="520" as="targetPoint" />
            <Array as="points">
              <mxPoint x="2120" y="520" />
              <mxPoint x="1960" y="520" />
            </Array>
          </mxGeometry>
        </mxCell>
        <mxCell id="nMUlGTiB2CHpz4Iuv25U-60" value="of" style="text;html=1;strokeColor=none;fillColor=none;align=center;verticalAlign=middle;whiteSpace=wrap;rounded=0;fontSize=12;" parent="1" vertex="1">
          <mxGeometry x="1205" y="300" width="60" height="30" as="geometry" />
        </mxCell>
        <mxCell id="nMUlGTiB2CHpz4Iuv25U-63" value="" style="endArrow=diamondThin;endFill=1;endSize=24;html=1;rounded=0;fontSize=11;exitX=0.5;exitY=0;exitDx=0;exitDy=0;entryX=0.44;entryY=0.974;entryDx=0;entryDy=0;entryPerimeter=0;" parent="1" source="nMUlGTiB2CHpz4Iuv25U-64" target="nMUlGTiB2CHpz4Iuv25U-68" edge="1">
          <mxGeometry width="160" relative="1" as="geometry">
            <mxPoint x="1090" y="822" as="sourcePoint" />
            <mxPoint x="1600" y="682" as="targetPoint" />
          </mxGeometry>
        </mxCell>
        <mxCell id="nMUlGTiB2CHpz4Iuv25U-64" value="RecordField" style="swimlane;fontStyle=0;childLayout=stackLayout;horizontal=1;startSize=26;fillColor=none;horizontalStack=0;resizeParent=1;resizeParentMax=0;resizeLast=0;collapsible=1;marginBottom=0;" parent="1" vertex="1">
          <mxGeometry x="1544" y="798" width="110" height="52" as="geometry" />
        </mxCell>
        <mxCell id="nMUlGTiB2CHpz4Iuv25U-65" value="name:string" style="text;strokeColor=none;fillColor=none;align=left;verticalAlign=top;spacingLeft=4;spacingRight=4;overflow=hidden;rotatable=0;points=[[0,0.5],[1,0.5]];portConstraint=eastwest;" parent="nMUlGTiB2CHpz4Iuv25U-64" vertex="1">
          <mxGeometry y="26" width="110" height="26" as="geometry" />
        </mxCell>
        <mxCell id="nMUlGTiB2CHpz4Iuv25U-66" value="fields" style="text;html=1;strokeColor=none;fillColor=none;align=center;verticalAlign=middle;whiteSpace=wrap;rounded=0;fontSize=12;" parent="1" vertex="1">
          <mxGeometry x="1590" y="768" width="60" height="30" as="geometry" />
        </mxCell>
        <mxCell id="nMUlGTiB2CHpz4Iuv25U-67" value="*" style="text;html=1;strokeColor=none;fillColor=none;align=center;verticalAlign=middle;whiteSpace=wrap;rounded=0;fontSize=17;" parent="1" vertex="1">
          <mxGeometry x="1560" y="772" width="60" height="30" as="geometry" />
        </mxCell>
        <mxCell id="nMUlGTiB2CHpz4Iuv25U-68" value="RecordType" style="rounded=0;whiteSpace=wrap;html=1;" parent="1" vertex="1">
          <mxGeometry x="1554" y="626" width="100" height="38" as="geometry" />
        </mxCell>
        <mxCell id="nMUlGTiB2CHpz4Iuv25U-70" value="FunctionType" style="rounded=0;whiteSpace=wrap;html=1;" parent="1" vertex="1">
          <mxGeometry x="1700" y="626" width="100" height="38" as="geometry" />
        </mxCell>
        <mxCell id="nMUlGTiB2CHpz4Iuv25U-71" value="" style="endArrow=diamondThin;endFill=1;endSize=24;html=1;rounded=0;fontSize=11;entryX=0.75;entryY=1;entryDx=0;entryDy=0;exitX=1;exitY=0.5;exitDx=0;exitDy=0;" parent="1" source="2OquBeiTaUIM5SdRCzM_-9" target="nMUlGTiB2CHpz4Iuv25U-70" edge="1">
          <mxGeometry width="160" relative="1" as="geometry">
            <mxPoint x="1090" y="509.9899999999998" as="sourcePoint" />
            <mxPoint x="1610" y="650" as="targetPoint" />
            <Array as="points">
              <mxPoint x="1840" y="340" />
              <mxPoint x="1840" y="690" />
              <mxPoint x="1775" y="690" />
            </Array>
          </mxGeometry>
        </mxCell>
        <mxCell id="nMUlGTiB2CHpz4Iuv25U-72" value="returnType" style="text;html=1;strokeColor=none;fillColor=none;align=center;verticalAlign=middle;whiteSpace=wrap;rounded=0;fontSize=12;" parent="1" vertex="1">
          <mxGeometry x="1225" y="330" width="60" height="30" as="geometry" />
        </mxCell>
        <mxCell id="nMUlGTiB2CHpz4Iuv25U-73" value="&lt;font style=&quot;font-size: 13px;&quot;&gt;1&lt;/font&gt;" style="text;html=1;strokeColor=none;fillColor=none;align=center;verticalAlign=middle;whiteSpace=wrap;rounded=0;fontSize=17;" parent="1" vertex="1">
          <mxGeometry x="1180" y="330" width="60" height="30" as="geometry" />
        </mxCell>
        <mxCell id="nMUlGTiB2CHpz4Iuv25U-76" value="" style="endArrow=diamondThin;endFill=1;endSize=24;html=1;rounded=0;fontSize=11;entryX=0.25;entryY=1;entryDx=0;entryDy=0;exitX=0.5;exitY=1.154;exitDx=0;exitDy=0;exitPerimeter=0;edgeStyle=orthogonalEdgeStyle;" parent="1" source="oNAzj_Q-IyHjENxbsIRl-6" target="nMUlGTiB2CHpz4Iuv25U-70" edge="1">
          <mxGeometry width="160" relative="1" as="geometry">
            <mxPoint x="710" y="727" as="sourcePoint" />
            <mxPoint x="1813.96" y="902.0059999999999" as="targetPoint" />
            <Array as="points">
              <mxPoint x="640" y="860" />
              <mxPoint x="1725" y="860" />
            </Array>
          </mxGeometry>
        </mxCell>
        <mxCell id="nMUlGTiB2CHpz4Iuv25U-79" value="" style="endArrow=diamondThin;endFill=0;endSize=24;html=1;rounded=0;fontSize=11;entryX=0;entryY=0.5;entryDx=0;entryDy=0;exitX=0.368;exitY=0.015;exitDx=0;exitDy=0;exitPerimeter=0;" parent="1" source="krxHbP2sfhbJSF6yrtBJ-1" target="nMUlGTiB2CHpz4Iuv25U-11" edge="1">
          <mxGeometry width="160" relative="1" as="geometry">
            <mxPoint x="90" y="90" as="sourcePoint" />
            <mxPoint x="60" y="490" as="targetPoint" />
            <Array as="points">
              <mxPoint x="80" y="60" />
              <mxPoint x="-320" y="60" />
              <mxPoint x="-320" y="530" />
            </Array>
          </mxGeometry>
        </mxCell>
        <mxCell id="nMUlGTiB2CHpz4Iuv25U-80" value="" style="endArrow=diamondThin;endFill=0;endSize=24;html=1;rounded=0;fontSize=11;entryX=0.004;entryY=0.055;entryDx=0;entryDy=0;entryPerimeter=0;" parent="1" target="nMUlGTiB2CHpz4Iuv25U-10" edge="1">
          <mxGeometry width="160" relative="1" as="geometry">
            <mxPoint x="-320" y="490" as="sourcePoint" />
            <mxPoint x="60" y="490" as="targetPoint" />
            <Array as="points">
              <mxPoint x="-320" y="604" />
            </Array>
          </mxGeometry>
        </mxCell>
        <mxCell id="oNAzj_Q-IyHjENxbsIRl-5" value="VarDefinition" style="swimlane;fontStyle=0;childLayout=stackLayout;horizontal=1;startSize=26;horizontalStack=0;resizeParent=1;resizeParentMax=0;resizeLast=0;collapsible=1;marginBottom=0;" parent="1" vertex="1">
          <mxGeometry x="570" y="364" width="140" height="52" as="geometry" />
        </mxCell>
        <mxCell id="oNAzj_Q-IyHjENxbsIRl-6" value="offset:int" style="text;align=left;verticalAlign=top;spacingLeft=4;spacingRight=4;overflow=hidden;rotatable=0;points=[[0,0.5],[1,0.5]];portConstraint=eastwest;" parent="oNAzj_Q-IyHjENxbsIRl-5" vertex="1">
          <mxGeometry y="26" width="140" height="26" as="geometry" />
        </mxCell>
        <mxCell id="oNAzj_Q-IyHjENxbsIRl-8" value="*" style="text;html=1;strokeColor=none;fillColor=none;align=center;verticalAlign=middle;whiteSpace=wrap;rounded=0;fontSize=17;" parent="1" vertex="1">
          <mxGeometry x="690" y="375" width="60" height="30" as="geometry" />
        </mxCell>
        <mxCell id="oNAzj_Q-IyHjENxbsIRl-9" value="parameters" style="text;html=1;strokeColor=none;fillColor=none;align=center;verticalAlign=middle;whiteSpace=wrap;rounded=0;fontSize=12;" parent="1" vertex="1">
          <mxGeometry x="720" y="394" width="60" height="30" as="geometry" />
        </mxCell>
        <mxCell id="oNAzj_Q-IyHjENxbsIRl-10" value="" style="endArrow=diamondThin;endFill=0;endSize=24;html=1;rounded=0;fontSize=13;entryX=0;entryY=0.25;entryDx=0;entryDy=0;" parent="1" target="2UWd0R9MiRfLyB3t6blX-48" edge="1">
          <mxGeometry width="160" relative="1" as="geometry">
            <mxPoint x="-40" y="180" as="sourcePoint" />
            <mxPoint x="-240" y="450" as="targetPoint" />
            <Array as="points">
              <mxPoint x="-40" y="240" />
              <mxPoint x="-300" y="240" />
              <mxPoint x="-300" y="459" />
            </Array>
          </mxGeometry>
        </mxCell>
        <mxCell id="gAaPT1Y8cN8m3fBVV7aP-2" value="*" style="text;html=1;strokeColor=none;fillColor=none;align=center;verticalAlign=middle;whiteSpace=wrap;rounded=0;fontSize=14;" parent="1" vertex="1">
          <mxGeometry x="140" y="60" width="60" height="30" as="geometry" />
        </mxCell>
        <mxCell id="V8tE0jP70gdgCO8X672E-1" value="" style="endArrow=diamondThin;endFill=1;endSize=24;html=1;rounded=0;fontSize=11;entryX=0.5;entryY=1.077;entryDx=0;entryDy=0;entryPerimeter=0;exitX=1;exitY=0.5;exitDx=0;exitDy=0;" parent="1" source="2OquBeiTaUIM5SdRCzM_-7" target="nMUlGTiB2CHpz4Iuv25U-65" edge="1">
          <mxGeometry width="160" relative="1" as="geometry">
            <mxPoint x="1089.8500000000004" y="453.2199999999998" as="sourcePoint" />
            <mxPoint x="1329" y="676" as="targetPoint" />
            <Array as="points">
              <mxPoint x="2000" y="282" />
              <mxPoint x="2000" y="940" />
              <mxPoint x="1600" y="940" />
            </Array>
          </mxGeometry>
        </mxCell>
        <mxCell id="V8tE0jP70gdgCO8X672E-2" value="typeOf" style="text;html=1;strokeColor=none;fillColor=none;align=center;verticalAlign=middle;whiteSpace=wrap;rounded=0;fontSize=12;" parent="1" vertex="1">
          <mxGeometry x="1215" y="276" width="60" height="30" as="geometry" />
        </mxCell>
        <mxCell id="V8tE0jP70gdgCO8X672E-4" value="&lt;font style=&quot;font-size: 13px;&quot;&gt;1&lt;/font&gt;" style="text;html=1;strokeColor=none;fillColor=none;align=center;verticalAlign=middle;whiteSpace=wrap;rounded=0;fontSize=17;" parent="1" vertex="1">
          <mxGeometry x="1185" y="278" width="50" height="22" as="geometry" />
        </mxCell>
        <mxCell id="V8tE0jP70gdgCO8X672E-5" value="UnaryNot" style="rounded=0;whiteSpace=wrap;html=1;fontSize=13;" parent="1" vertex="1">
          <mxGeometry x="-260" y="950" width="91" height="30" as="geometry" />
        </mxCell>
        <mxCell id="V8tE0jP70gdgCO8X672E-6" value="" style="endArrow=diamondThin;endFill=0;endSize=24;html=1;rounded=0;entryX=0;entryY=0.5;entryDx=0;entryDy=0;" parent="1" target="V8tE0jP70gdgCO8X672E-5" edge="1">
          <mxGeometry width="160" relative="1" as="geometry">
            <mxPoint x="-350" y="180" as="sourcePoint" />
            <mxPoint x="210" y="760" as="targetPoint" />
            <Array as="points">
              <mxPoint x="-500" y="180" />
              <mxPoint x="-500" y="965" />
            </Array>
          </mxGeometry>
        </mxCell>
        <mxCell id="V8tE0jP70gdgCO8X672E-8" value="CharLiteral" style="swimlane;fontStyle=0;childLayout=stackLayout;horizontal=1;startSize=26;horizontalStack=0;resizeParent=1;resizeParentMax=0;resizeLast=0;collapsible=1;marginBottom=0;" parent="1" vertex="1">
          <mxGeometry x="-264" y="252" width="110" height="54" as="geometry" />
        </mxCell>
        <mxCell id="V8tE0jP70gdgCO8X672E-9" value="value:char" style="text;align=left;verticalAlign=top;spacingLeft=4;spacingRight=4;overflow=hidden;rotatable=0;points=[[0,0.5],[1,0.5]];portConstraint=eastwest;" parent="V8tE0jP70gdgCO8X672E-8" vertex="1">
          <mxGeometry y="26" width="110" height="28" as="geometry" />
        </mxCell>
        <mxCell id="V8tE0jP70gdgCO8X672E-10" value="intLiteral" style="swimlane;fontStyle=0;childLayout=stackLayout;horizontal=1;startSize=26;horizontalStack=0;resizeParent=1;resizeParentMax=0;resizeLast=0;collapsible=1;marginBottom=0;" parent="1" vertex="1">
          <mxGeometry x="-269.5" y="318" width="110" height="54" as="geometry" />
        </mxCell>
        <mxCell id="V8tE0jP70gdgCO8X672E-11" value="value:int" style="text;align=left;verticalAlign=top;spacingLeft=4;spacingRight=4;overflow=hidden;rotatable=0;points=[[0,0.5],[1,0.5]];portConstraint=eastwest;" parent="V8tE0jP70gdgCO8X672E-10" vertex="1">
          <mxGeometry y="26" width="110" height="28" as="geometry" />
        </mxCell>
        <mxCell id="V8tE0jP70gdgCO8X672E-12" value="RealLiteral" style="swimlane;fontStyle=0;childLayout=stackLayout;horizontal=1;startSize=26;horizontalStack=0;resizeParent=1;resizeParentMax=0;resizeLast=0;collapsible=1;marginBottom=0;" parent="1" vertex="1">
          <mxGeometry x="-269.5" y="382" width="110" height="54" as="geometry" />
        </mxCell>
        <mxCell id="V8tE0jP70gdgCO8X672E-13" value="value:double" style="text;align=left;verticalAlign=top;spacingLeft=4;spacingRight=4;overflow=hidden;rotatable=0;points=[[0,0.5],[1,0.5]];portConstraint=eastwest;" parent="V8tE0jP70gdgCO8X672E-12" vertex="1">
          <mxGeometry y="26" width="110" height="28" as="geometry" />
        </mxCell>
        <mxCell id="V8tE0jP70gdgCO8X672E-14" value="" style="endArrow=none;dashed=1;html=1;rounded=0;fontSize=14;exitX=1;exitY=0.5;exitDx=0;exitDy=0;" parent="1" source="nMUlGTiB2CHpz4Iuv25U-26" edge="1">
          <mxGeometry width="50" height="50" relative="1" as="geometry">
            <mxPoint x="-130" y="785" as="sourcePoint" />
            <mxPoint x="30" y="780" as="targetPoint" />
            <Array as="points">
              <mxPoint x="30" y="865" />
            </Array>
          </mxGeometry>
        </mxCell>
        <mxCell id="V8tE0jP70gdgCO8X672E-15" value="" style="endArrow=none;dashed=1;html=1;rounded=0;fontSize=14;exitX=1;exitY=0.5;exitDx=0;exitDy=0;" parent="1" source="V8tE0jP70gdgCO8X672E-5" edge="1">
          <mxGeometry width="50" height="50" relative="1" as="geometry">
            <mxPoint x="-120" y="795" as="sourcePoint" />
            <mxPoint x="30" y="860" as="targetPoint" />
            <Array as="points">
              <mxPoint x="30" y="965" />
            </Array>
          </mxGeometry>
        </mxCell>
        <mxCell id="V8tE0jP70gdgCO8X672E-17" value="" style="endArrow=none;dashed=1;html=1;rounded=0;fontSize=13;exitX=1;exitY=0.75;exitDx=0;exitDy=0;" parent="1" source="nMUlGTiB2CHpz4Iuv25U-11" edge="1">
          <mxGeometry width="50" height="50" relative="1" as="geometry">
            <mxPoint x="-154" y="473" as="sourcePoint" />
            <mxPoint x="30" y="460" as="targetPoint" />
            <Array as="points">
              <mxPoint x="30" y="545" />
            </Array>
          </mxGeometry>
        </mxCell>
        <mxCell id="V8tE0jP70gdgCO8X672E-18" value="&lt;font style=&quot;font-size: 13px;&quot;&gt;1&lt;/font&gt;" style="text;html=1;strokeColor=none;fillColor=none;align=center;verticalAlign=middle;whiteSpace=wrap;rounded=0;fontSize=17;" parent="1" vertex="1">
          <mxGeometry x="1060" y="180" width="60" height="30" as="geometry" />
        </mxCell>
        <mxCell id="V8tE0jP70gdgCO8X672E-22" value="" style="endArrow=diamondThin;endFill=0;endSize=24;html=1;rounded=0;entryX=1;entryY=0.75;entryDx=0;entryDy=0;exitX=0;exitY=0.25;exitDx=0;exitDy=0;" parent="1" source="oNAzj_Q-IyHjENxbsIRl-5" target="2UWd0R9MiRfLyB3t6blX-27" edge="1">
          <mxGeometry width="160" relative="1" as="geometry">
            <mxPoint x="790" y="400" as="sourcePoint" />
            <mxPoint x="950" y="400" as="targetPoint" />
            <Array as="points" />
          </mxGeometry>
        </mxCell>
        <mxCell id="V8tE0jP70gdgCO8X672E-23" value="*" style="text;html=1;strokeColor=none;fillColor=none;align=center;verticalAlign=middle;whiteSpace=wrap;rounded=0;fontSize=17;" parent="1" vertex="1">
          <mxGeometry x="530" y="358" width="60" height="30" as="geometry" />
        </mxCell>
        <mxCell id="yawqbWrjXsBJeD854lE_-2" value="" style="endArrow=none;dashed=1;html=1;rounded=0;exitX=0.75;exitY=1;exitDx=0;exitDy=0;" parent="1" source="nMUlGTiB2CHpz4Iuv25U-26" edge="1">
          <mxGeometry width="50" height="50" relative="1" as="geometry">
            <mxPoint x="-80" y="640" as="sourcePoint" />
            <mxPoint x="270" y="700" as="targetPoint" />
            <Array as="points">
              <mxPoint x="-162" y="900" />
              <mxPoint x="400" y="900" />
              <mxPoint x="400" y="700" />
            </Array>
          </mxGeometry>
        </mxCell>
        <mxCell id="3YkmplcBCZs07POEgJ4Y-6" value="ErrorType" style="swimlane;fontStyle=1;align=center;verticalAlign=top;childLayout=stackLayout;horizontal=1;startSize=26;horizontalStack=0;resizeParent=1;resizeParentMax=0;resizeLast=0;collapsible=1;marginBottom=0;whiteSpace=wrap;html=1;" parent="1" vertex="1">
          <mxGeometry x="2040" y="558" width="160" height="112" as="geometry" />
        </mxCell>
        <mxCell id="3YkmplcBCZs07POEgJ4Y-7" value="-Message:string" style="text;strokeColor=none;fillColor=none;align=left;verticalAlign=top;spacingLeft=4;spacingRight=4;overflow=hidden;rotatable=0;points=[[0,0.5],[1,0.5]];portConstraint=eastwest;whiteSpace=wrap;html=1;" parent="3YkmplcBCZs07POEgJ4Y-6" vertex="1">
          <mxGeometry y="26" width="160" height="26" as="geometry" />
        </mxCell>
        <mxCell id="3YkmplcBCZs07POEgJ4Y-8" value="" style="line;strokeWidth=1;fillColor=none;align=left;verticalAlign=middle;spacingTop=-1;spacingLeft=3;spacingRight=3;rotatable=0;labelPosition=right;points=[];portConstraint=eastwest;strokeColor=inherit;" parent="3YkmplcBCZs07POEgJ4Y-6" vertex="1">
          <mxGeometry y="52" width="160" height="8" as="geometry" />
        </mxCell>
        <mxCell id="3YkmplcBCZs07POEgJ4Y-9" value="+ErrorType(string,int,int)" style="text;strokeColor=none;fillColor=none;align=left;verticalAlign=top;spacingLeft=4;spacingRight=4;overflow=hidden;rotatable=0;points=[[0,0.5],[1,0.5]];portConstraint=eastwest;whiteSpace=wrap;html=1;" parent="3YkmplcBCZs07POEgJ4Y-6" vertex="1">
          <mxGeometry y="60" width="160" height="26" as="geometry" />
        </mxCell>
        <mxCell id="3YkmplcBCZs07POEgJ4Y-19" value="+toString():string" style="text;strokeColor=none;fillColor=none;align=left;verticalAlign=top;spacingLeft=4;spacingRight=4;overflow=hidden;rotatable=0;points=[[0,0.5],[1,0.5]];portConstraint=eastwest;whiteSpace=wrap;html=1;" parent="3YkmplcBCZs07POEgJ4Y-6" vertex="1">
          <mxGeometry y="86" width="160" height="26" as="geometry" />
        </mxCell>
        <mxCell id="3YkmplcBCZs07POEgJ4Y-13" value="" style="endArrow=none;dashed=1;html=1;rounded=0;fontSize=11;exitX=0.5;exitY=0;exitDx=0;exitDy=0;" parent="1" edge="1">
          <mxGeometry width="50" height="50" relative="1" as="geometry">
            <mxPoint x="1765" y="626" as="sourcePoint" />
            <mxPoint x="1600" y="572" as="targetPoint" />
            <Array as="points">
              <mxPoint x="1765" y="573" />
            </Array>
          </mxGeometry>
        </mxCell>
        <mxCell id="3YkmplcBCZs07POEgJ4Y-14" value="ErrorHandler" style="swimlane;fontStyle=0;childLayout=stackLayout;horizontal=1;startSize=26;horizontalStack=0;resizeParent=1;resizeParentMax=0;resizeLast=0;collapsible=1;marginBottom=0;" parent="1" vertex="1">
          <mxGeometry x="1380" width="160" height="104" as="geometry" />
        </mxCell>
        <mxCell id="3YkmplcBCZs07POEgJ4Y-15" value="+ anyErrors():boolean " style="text;align=left;verticalAlign=top;spacingLeft=4;spacingRight=4;overflow=hidden;rotatable=0;points=[[0,0.5],[1,0.5]];portConstraint=eastwest;" parent="3YkmplcBCZs07POEgJ4Y-14" vertex="1">
          <mxGeometry y="26" width="160" height="26" as="geometry" />
        </mxCell>
        <mxCell id="3YkmplcBCZs07POEgJ4Y-16" value="+ addError(ErrorType)" style="text;align=left;verticalAlign=top;spacingLeft=4;spacingRight=4;overflow=hidden;rotatable=0;points=[[0,0.5],[1,0.5]];portConstraint=eastwest;" parent="3YkmplcBCZs07POEgJ4Y-14" vertex="1">
          <mxGeometry y="52" width="160" height="26" as="geometry" />
        </mxCell>
        <mxCell id="3YkmplcBCZs07POEgJ4Y-17" value="+ showErrors(PrintStream)" style="text;align=left;verticalAlign=top;spacingLeft=4;spacingRight=4;overflow=hidden;rotatable=0;points=[[0,0.5],[1,0.5]];portConstraint=eastwest;" parent="3YkmplcBCZs07POEgJ4Y-14" vertex="1">
          <mxGeometry y="78" width="160" height="26" as="geometry" />
        </mxCell>
        <mxCell id="3YkmplcBCZs07POEgJ4Y-20" value="" style="endArrow=open;endFill=1;endSize=12;html=1;rounded=0;exitX=1;exitY=0.5;exitDx=0;exitDy=0;entryX=0.75;entryY=0;entryDx=0;entryDy=0;" parent="1" source="3YkmplcBCZs07POEgJ4Y-15" target="3YkmplcBCZs07POEgJ4Y-6" edge="1">
          <mxGeometry width="160" relative="1" as="geometry">
            <mxPoint x="1630" y="290" as="sourcePoint" />
            <mxPoint x="2150" y="370" as="targetPoint" />
            <Array as="points">
              <mxPoint x="2160" y="40" />
            </Array>
          </mxGeometry>
        </mxCell>
        <mxCell id="3YkmplcBCZs07POEgJ4Y-21" value="*" style="text;html=1;strokeColor=none;fillColor=none;align=center;verticalAlign=middle;whiteSpace=wrap;rounded=0;fontSize=17;" parent="1" vertex="1">
          <mxGeometry x="2120" y="520" width="60" height="30" as="geometry" />
        </mxCell>
        <mxCell id="3YkmplcBCZs07POEgJ4Y-22" value="errors" style="text;html=1;strokeColor=none;fillColor=none;align=center;verticalAlign=middle;whiteSpace=wrap;rounded=0;fontSize=12;" parent="1" vertex="1">
          <mxGeometry x="2160" y="520" width="60" height="30" as="geometry" />
        </mxCell>
        <mxCell id="krxHbP2sfhbJSF6yrtBJ-1" value="&lt;&lt;Interface&gt;&gt;&#xa;Expression&#xa;" style="swimlane;fontStyle=0;childLayout=stackLayout;horizontal=1;startSize=40;horizontalStack=0;resizeParent=1;resizeParentMax=0;resizeLast=0;collapsible=1;marginBottom=0;" parent="1" vertex="1">
          <mxGeometry x="10" y="97" width="190" height="96" as="geometry" />
        </mxCell>
        <mxCell id="krxHbP2sfhbJSF6yrtBJ-2" value="getLValue():boolean" style="text;align=left;verticalAlign=top;spacingLeft=4;spacingRight=4;overflow=hidden;rotatable=0;points=[[0,0.5],[1,0.5]];portConstraint=eastwest;" parent="krxHbP2sfhbJSF6yrtBJ-1" vertex="1">
          <mxGeometry y="40" width="190" height="28" as="geometry" />
        </mxCell>
        <mxCell id="krxHbP2sfhbJSF6yrtBJ-3" value="setLValue(boolean lvalue): void" style="text;align=left;verticalAlign=top;spacingLeft=4;spacingRight=4;overflow=hidden;rotatable=0;points=[[0,0.5],[1,0.5]];portConstraint=eastwest;" parent="krxHbP2sfhbJSF6yrtBJ-1" vertex="1">
          <mxGeometry y="68" width="190" height="28" as="geometry" />
        </mxCell>
        <mxCell id="krxHbP2sfhbJSF6yrtBJ-9" value="2" style="text;html=1;strokeColor=none;fillColor=none;align=center;verticalAlign=middle;whiteSpace=wrap;rounded=0;fontSize=14;" parent="1" vertex="1">
          <mxGeometry x="-40" y="104" width="60" height="30" as="geometry" />
        </mxCell>
        <mxCell id="krxHbP2sfhbJSF6yrtBJ-10" value="&lt;&lt;Interface&gt;&gt;&#xa;Definition" style="swimlane;fontStyle=0;childLayout=stackLayout;horizontal=1;startSize=26;horizontalStack=0;resizeParent=1;resizeParentMax=0;resizeLast=0;collapsible=1;marginBottom=0;" parent="1" vertex="1">
          <mxGeometry x="500" y="160" width="140" height="130" as="geometry" />
        </mxCell>
        <mxCell id="krxHbP2sfhbJSF6yrtBJ-11" value="+ getType():Type" style="text;align=left;verticalAlign=top;spacingLeft=4;spacingRight=4;overflow=hidden;rotatable=0;points=[[0,0.5],[1,0.5]];portConstraint=eastwest;" parent="krxHbP2sfhbJSF6yrtBJ-10" vertex="1">
          <mxGeometry y="26" width="140" height="26" as="geometry" />
        </mxCell>
        <mxCell id="krxHbP2sfhbJSF6yrtBJ-12" value="+ getName():string" style="text;align=left;verticalAlign=top;spacingLeft=4;spacingRight=4;overflow=hidden;rotatable=0;points=[[0,0.5],[1,0.5]];portConstraint=eastwest;" parent="krxHbP2sfhbJSF6yrtBJ-10" vertex="1">
          <mxGeometry y="52" width="140" height="26" as="geometry" />
        </mxCell>
        <mxCell id="krxHbP2sfhbJSF6yrtBJ-26" value="setScope(int):void" style="text;align=left;verticalAlign=top;spacingLeft=4;spacingRight=4;overflow=hidden;rotatable=0;points=[[0,0.5],[1,0.5]];portConstraint=eastwest;" parent="krxHbP2sfhbJSF6yrtBJ-10" vertex="1">
          <mxGeometry y="78" width="140" height="26" as="geometry" />
        </mxCell>
        <mxCell id="krxHbP2sfhbJSF6yrtBJ-27" value="getScope():int" style="text;align=left;verticalAlign=top;spacingLeft=4;spacingRight=4;overflow=hidden;rotatable=0;points=[[0,0.5],[1,0.5]];portConstraint=eastwest;" parent="krxHbP2sfhbJSF6yrtBJ-10" vertex="1">
          <mxGeometry y="104" width="140" height="26" as="geometry" />
        </mxCell>
        <mxCell id="krxHbP2sfhbJSF6yrtBJ-13" value="&lt;div&gt;&amp;lt;&amp;lt;Interface&amp;gt;&amp;gt;&lt;/div&gt;&lt;div&gt;Visitor&lt;br&gt;&lt;/div&gt;" style="rounded=0;whiteSpace=wrap;html=1;" parent="1" vertex="1">
          <mxGeometry x="800" y="-320" width="120" height="60" as="geometry" />
        </mxCell>
        <mxCell id="krxHbP2sfhbJSF6yrtBJ-14" value="AbstractVisitor" style="rounded=0;whiteSpace=wrap;html=1;" parent="1" vertex="1">
          <mxGeometry x="800" y="-220" width="120" height="60" as="geometry" />
        </mxCell>
        <mxCell id="krxHbP2sfhbJSF6yrtBJ-15" value="TypeChekingVisitor" style="rounded=0;whiteSpace=wrap;html=1;" parent="1" vertex="1">
          <mxGeometry x="690" y="-90" width="120" height="60" as="geometry" />
        </mxCell>
        <mxCell id="krxHbP2sfhbJSF6yrtBJ-16" value="" style="endArrow=block;dashed=1;endFill=0;endSize=12;html=1;rounded=0;exitX=0.5;exitY=0;exitDx=0;exitDy=0;entryX=0.5;entryY=1;entryDx=0;entryDy=0;" parent="1" source="krxHbP2sfhbJSF6yrtBJ-14" target="krxHbP2sfhbJSF6yrtBJ-13" edge="1">
          <mxGeometry width="160" relative="1" as="geometry">
            <mxPoint x="630" y="-90" as="sourcePoint" />
            <mxPoint x="790" y="-90" as="targetPoint" />
          </mxGeometry>
        </mxCell>
        <mxCell id="krxHbP2sfhbJSF6yrtBJ-17" value="" style="endArrow=block;dashed=1;endFill=0;endSize=12;html=1;rounded=0;exitX=0.5;exitY=0;exitDx=0;exitDy=0;entryX=0.5;entryY=1;entryDx=0;entryDy=0;edgeStyle=orthogonalEdgeStyle;" parent="1" source="krxHbP2sfhbJSF6yrtBJ-15" target="krxHbP2sfhbJSF6yrtBJ-14" edge="1">
          <mxGeometry width="160" relative="1" as="geometry">
            <mxPoint x="870" y="-210" as="sourcePoint" />
            <mxPoint x="870" y="-250" as="targetPoint" />
            <Array as="points">
              <mxPoint x="750" y="-130" />
              <mxPoint x="860" y="-130" />
            </Array>
          </mxGeometry>
        </mxCell>
        <mxCell id="krxHbP2sfhbJSF6yrtBJ-19" value="" style="endArrow=open;endFill=1;endSize=12;html=1;rounded=0;exitX=0;exitY=0.5;exitDx=0;exitDy=0;entryX=1;entryY=0.5;entryDx=0;entryDy=0;" parent="1" source="nMUlGTiB2CHpz4Iuv25U-3" target="krxHbP2sfhbJSF6yrtBJ-27" edge="1">
          <mxGeometry width="160" relative="1" as="geometry">
            <mxPoint x="-390" y="690" as="sourcePoint" />
            <mxPoint x="630" y="295" as="targetPoint" />
            <Array as="points">
              <mxPoint x="-560" y="690" />
              <mxPoint x="-560" y="1030" />
              <mxPoint x="820" y="1030" />
              <mxPoint x="820" y="277" />
            </Array>
          </mxGeometry>
        </mxCell>
        <mxCell id="krxHbP2sfhbJSF6yrtBJ-20" value="definition" style="text;html=1;strokeColor=none;fillColor=none;align=center;verticalAlign=middle;whiteSpace=wrap;rounded=0;" parent="1" vertex="1">
          <mxGeometry x="660" y="276" width="60" height="30" as="geometry" />
        </mxCell>
        <mxCell id="krxHbP2sfhbJSF6yrtBJ-21" value="SymbolTable" style="swimlane;fontStyle=0;childLayout=stackLayout;horizontal=1;startSize=30;horizontalStack=0;resizeParent=1;resizeParentMax=0;resizeLast=0;collapsible=1;marginBottom=0;fontSize=12;" parent="1" vertex="1">
          <mxGeometry x="680" y="92" width="190" height="142" as="geometry" />
        </mxCell>
        <mxCell id="krxHbP2sfhbJSF6yrtBJ-22" value="insert(Definition):string" style="text;align=left;verticalAlign=top;spacingLeft=4;spacingRight=4;overflow=hidden;rotatable=0;points=[[0,0.5],[1,0.5]];portConstraint=eastwest;" parent="krxHbP2sfhbJSF6yrtBJ-21" vertex="1">
          <mxGeometry y="30" width="190" height="28" as="geometry" />
        </mxCell>
        <mxCell id="krxHbP2sfhbJSF6yrtBJ-23" value="find(string):Definition" style="text;align=left;verticalAlign=top;spacingLeft=4;spacingRight=4;overflow=hidden;rotatable=0;points=[[0,0.5],[1,0.5]];portConstraint=eastwest;" parent="krxHbP2sfhbJSF6yrtBJ-21" vertex="1">
          <mxGeometry y="58" width="190" height="28" as="geometry" />
        </mxCell>
        <mxCell id="krxHbP2sfhbJSF6yrtBJ-24" value="set()" style="text;align=left;verticalAlign=top;spacingLeft=4;spacingRight=4;overflow=hidden;rotatable=0;points=[[0,0.5],[1,0.5]];portConstraint=eastwest;" parent="krxHbP2sfhbJSF6yrtBJ-21" vertex="1">
          <mxGeometry y="86" width="190" height="28" as="geometry" />
        </mxCell>
        <mxCell id="krxHbP2sfhbJSF6yrtBJ-25" value="reset()" style="text;align=left;verticalAlign=top;spacingLeft=4;spacingRight=4;overflow=hidden;rotatable=0;points=[[0,0.5],[1,0.5]];portConstraint=eastwest;" parent="krxHbP2sfhbJSF6yrtBJ-21" vertex="1">
          <mxGeometry y="114" width="190" height="28" as="geometry" />
        </mxCell>
        <mxCell id="krxHbP2sfhbJSF6yrtBJ-28" value="" style="endArrow=classic;html=1;rounded=0;entryX=1;entryY=0.5;entryDx=0;entryDy=0;" parent="1" target="krxHbP2sfhbJSF6yrtBJ-11" edge="1">
          <mxGeometry width="50" height="50" relative="1" as="geometry">
            <mxPoint x="680" y="199" as="sourcePoint" />
            <mxPoint x="500" y="110" as="targetPoint" />
          </mxGeometry>
        </mxCell>
        <mxCell id="krxHbP2sfhbJSF6yrtBJ-29" value="IdentificationVisitor" style="rounded=0;whiteSpace=wrap;html=1;" parent="1" vertex="1">
          <mxGeometry x="840" y="-90" width="120" height="60" as="geometry" />
        </mxCell>
        <mxCell id="krxHbP2sfhbJSF6yrtBJ-30" value="" style="endArrow=none;dashed=1;html=1;rounded=0;exitX=0.575;exitY=-0.017;exitDx=0;exitDy=0;exitPerimeter=0;" parent="1" source="krxHbP2sfhbJSF6yrtBJ-29" edge="1">
          <mxGeometry width="50" height="50" relative="1" as="geometry">
            <mxPoint x="930" y="-40" as="sourcePoint" />
            <mxPoint x="860" y="-130" as="targetPoint" />
            <Array as="points">
              <mxPoint x="910" y="-130" />
            </Array>
          </mxGeometry>
        </mxCell>
        <mxCell id="krxHbP2sfhbJSF6yrtBJ-31" value="" style="endArrow=classic;html=1;rounded=0;exitX=0.5;exitY=0;exitDx=0;exitDy=0;entryX=0;entryY=0.5;entryDx=0;entryDy=0;" parent="1" source="2UWd0R9MiRfLyB3t6blX-8" target="krxHbP2sfhbJSF6yrtBJ-13" edge="1">
          <mxGeometry width="50" height="50" relative="1" as="geometry">
            <mxPoint x="380" y="-110" as="sourcePoint" />
            <mxPoint x="430" y="-160" as="targetPoint" />
            <Array as="points">
              <mxPoint x="310" y="-290" />
            </Array>
          </mxGeometry>
        </mxCell>
        <mxCell id="0DgnVXvEjsHBIJnJERgZ-3" value="" style="endArrow=open;endSize=12;dashed=1;html=1;rounded=0;fontSize=17;entryX=0.25;entryY=0;entryDx=0;entryDy=0;exitX=1.003;exitY=0.137;exitDx=0;exitDy=0;exitPerimeter=0;" parent="1" source="krxHbP2sfhbJSF6yrtBJ-1" edge="1">
          <mxGeometry width="160" relative="1" as="geometry">
            <mxPoint x="650" y="274" as="sourcePoint" />
            <mxPoint x="977.5" y="210" as="targetPoint" />
            <Array as="points">
              <mxPoint x="250" y="110" />
              <mxPoint x="250" />
              <mxPoint x="978" />
            </Array>
          </mxGeometry>
        </mxCell>
        <mxCell id="2OquBeiTaUIM5SdRCzM_-1" value="&lt;div&gt;&amp;lt;&amp;lt;interface&amp;gt;&amp;gt;&lt;/div&gt;&lt;div&gt;Type&lt;br&gt;&lt;/div&gt;" style="swimlane;fontStyle=0;childLayout=stackLayout;horizontal=1;startSize=30;fillColor=none;horizontalStack=0;resizeParent=1;resizeParentMax=0;resizeLast=0;collapsible=1;marginBottom=0;whiteSpace=wrap;html=1;" parent="1" vertex="1">
          <mxGeometry x="950" y="213" width="250" height="316" as="geometry" />
        </mxCell>
        <mxCell id="2OquBeiTaUIM5SdRCzM_-6" value="logic(Type,ASTNode):Type" style="text;strokeColor=none;fillColor=none;align=left;verticalAlign=top;spacingLeft=4;spacingRight=4;overflow=hidden;rotatable=0;points=[[0,0.5],[1,0.5]];portConstraint=eastwest;whiteSpace=wrap;html=1;" parent="2OquBeiTaUIM5SdRCzM_-1" vertex="1">
          <mxGeometry y="30" width="250" height="26" as="geometry" />
        </mxCell>
        <mxCell id="2OquBeiTaUIM5SdRCzM_-7" value="logic(ASTNode):Type" style="text;strokeColor=none;fillColor=none;align=left;verticalAlign=top;spacingLeft=4;spacingRight=4;overflow=hidden;rotatable=0;points=[[0,0.5],[1,0.5]];portConstraint=eastwest;whiteSpace=wrap;html=1;" parent="2OquBeiTaUIM5SdRCzM_-1" vertex="1">
          <mxGeometry y="56" width="250" height="26" as="geometry" />
        </mxCell>
        <mxCell id="2OquBeiTaUIM5SdRCzM_-8" value="squareBrackets(Type,ASTNode):Type" style="text;strokeColor=none;fillColor=none;align=left;verticalAlign=top;spacingLeft=4;spacingRight=4;overflow=hidden;rotatable=0;points=[[0,0.5],[1,0.5]];portConstraint=eastwest;whiteSpace=wrap;html=1;" parent="2OquBeiTaUIM5SdRCzM_-1" vertex="1">
          <mxGeometry y="82" width="250" height="26" as="geometry" />
        </mxCell>
        <mxCell id="2OquBeiTaUIM5SdRCzM_-9" value="mustBePromoteTo(Type,ASTNode):Type" style="text;strokeColor=none;fillColor=none;align=left;verticalAlign=top;spacingLeft=4;spacingRight=4;overflow=hidden;rotatable=0;points=[[0,0.5],[1,0.5]];portConstraint=eastwest;whiteSpace=wrap;html=1;" parent="2OquBeiTaUIM5SdRCzM_-1" vertex="1">
          <mxGeometry y="108" width="250" height="26" as="geometry" />
        </mxCell>
        <mxCell id="2OquBeiTaUIM5SdRCzM_-10" value="canBeCastTo(Type,ASTNode):Type" style="text;strokeColor=none;fillColor=none;align=left;verticalAlign=top;spacingLeft=4;spacingRight=4;overflow=hidden;rotatable=0;points=[[0,0.5],[1,0.5]];portConstraint=eastwest;whiteSpace=wrap;html=1;" parent="2OquBeiTaUIM5SdRCzM_-1" vertex="1">
          <mxGeometry y="134" width="250" height="26" as="geometry" />
        </mxCell>
        <mxCell id="2OquBeiTaUIM5SdRCzM_-11" value="parenthesis(List&amp;lt;Expression&amp;gt;,ASTNode):Type" style="text;strokeColor=none;fillColor=none;align=left;verticalAlign=top;spacingLeft=4;spacingRight=4;overflow=hidden;rotatable=0;points=[[0,0.5],[1,0.5]];portConstraint=eastwest;whiteSpace=wrap;html=1;" parent="2OquBeiTaUIM5SdRCzM_-1" vertex="1">
          <mxGeometry y="160" width="250" height="26" as="geometry" />
        </mxCell>
        <mxCell id="2OquBeiTaUIM5SdRCzM_-2" value="isLogical():boolean" style="text;strokeColor=none;fillColor=none;align=left;verticalAlign=top;spacingLeft=4;spacingRight=4;overflow=hidden;rotatable=0;points=[[0,0.5],[1,0.5]];portConstraint=eastwest;whiteSpace=wrap;html=1;" parent="2OquBeiTaUIM5SdRCzM_-1" vertex="1">
          <mxGeometry y="186" width="250" height="26" as="geometry" />
        </mxCell>
        <mxCell id="2OquBeiTaUIM5SdRCzM_-3" value="arithmetic(Type,ASTNode):Type" style="text;strokeColor=none;fillColor=none;align=left;verticalAlign=top;spacingLeft=4;spacingRight=4;overflow=hidden;rotatable=0;points=[[0,0.5],[1,0.5]];portConstraint=eastwest;whiteSpace=wrap;html=1;" parent="2OquBeiTaUIM5SdRCzM_-1" vertex="1">
          <mxGeometry y="212" width="250" height="26" as="geometry" />
        </mxCell>
        <mxCell id="2OquBeiTaUIM5SdRCzM_-4" value="arithmeticUnary(ASTNode):Type" style="text;strokeColor=none;fillColor=none;align=left;verticalAlign=top;spacingLeft=4;spacingRight=4;overflow=hidden;rotatable=0;points=[[0,0.5],[1,0.5]];portConstraint=eastwest;whiteSpace=wrap;html=1;" parent="2OquBeiTaUIM5SdRCzM_-1" vertex="1">
          <mxGeometry y="238" width="250" height="26" as="geometry" />
        </mxCell>
        <mxCell id="Ae8qWunVUSZZFU_GWLgP-2" value="arithmeticUnary(ASTNode):Type" style="text;strokeColor=none;fillColor=none;align=left;verticalAlign=top;spacingLeft=4;spacingRight=4;overflow=hidden;rotatable=0;points=[[0,0.5],[1,0.5]];portConstraint=eastwest;whiteSpace=wrap;html=1;" parent="2OquBeiTaUIM5SdRCzM_-1" vertex="1">
          <mxGeometry y="264" width="250" height="26" as="geometry" />
        </mxCell>
        <mxCell id="Ae8qWunVUSZZFU_GWLgP-4" value="numberOfBytes():int" style="text;strokeColor=none;fillColor=none;align=left;verticalAlign=top;spacingLeft=4;spacingRight=4;overflow=hidden;rotatable=0;points=[[0,0.5],[1,0.5]];portConstraint=eastwest;whiteSpace=wrap;html=1;" parent="2OquBeiTaUIM5SdRCzM_-1" vertex="1">
          <mxGeometry y="290" width="250" height="26" as="geometry" />
        </mxCell>
        <mxCell id="Ae8qWunVUSZZFU_GWLgP-1" value="&lt;font style=&quot;font-size: 13px;&quot;&gt;1&lt;/font&gt;" style="text;html=1;strokeColor=none;fillColor=none;align=center;verticalAlign=middle;whiteSpace=wrap;rounded=0;fontSize=17;" parent="1" vertex="1">
          <mxGeometry x="930" y="183" width="60" height="30" as="geometry" />
        </mxCell>
        <mxCell id="Ae8qWunVUSZZFU_GWLgP-5" value="IdentificationVisitor" style="rounded=0;whiteSpace=wrap;html=1;" parent="1" vertex="1">
          <mxGeometry x="990" y="-90" width="120" height="60" as="geometry" />
        </mxCell>
        <mxCell id="Ae8qWunVUSZZFU_GWLgP-7" value="" style="endArrow=none;dashed=1;html=1;rounded=0;exitX=0.5;exitY=0;exitDx=0;exitDy=0;edgeStyle=orthogonalEdgeStyle;" parent="1" source="Ae8qWunVUSZZFU_GWLgP-5" edge="1">
          <mxGeometry width="50" height="50" relative="1" as="geometry">
            <mxPoint x="920" y="-80" as="sourcePoint" />
            <mxPoint x="910" y="-130" as="targetPoint" />
            <Array as="points">
              <mxPoint x="1050" y="-130" />
            </Array>
          </mxGeometry>
        </mxCell>
        <mxCell id="lgV1PXhRq_5bHPOFEDmX-1" value="AbstractCGVisitor" style="rounded=0;whiteSpace=wrap;html=1;" vertex="1" parent="1">
          <mxGeometry x="1260" y="-280" width="120" height="60" as="geometry" />
        </mxCell>
        <mxCell id="lgV1PXhRq_5bHPOFEDmX-2" value="ExecuteCGVisitor" style="rounded=0;whiteSpace=wrap;html=1;" vertex="1" parent="1">
          <mxGeometry x="1350" y="-169" width="120" height="60" as="geometry" />
        </mxCell>
        <mxCell id="lgV1PXhRq_5bHPOFEDmX-3" value="ValueCGVisitor" style="rounded=0;whiteSpace=wrap;html=1;" vertex="1" parent="1">
          <mxGeometry x="1185" y="-169" width="120" height="60" as="geometry" />
        </mxCell>
        <mxCell id="lgV1PXhRq_5bHPOFEDmX-4" value="AddressCGVisitor" style="rounded=0;whiteSpace=wrap;html=1;" vertex="1" parent="1">
          <mxGeometry x="1520" y="-169" width="120" height="60" as="geometry" />
        </mxCell>
        <mxCell id="lgV1PXhRq_5bHPOFEDmX-6" value="CodeGenerator" style="swimlane;fontStyle=0;childLayout=stackLayout;horizontal=1;startSize=26;horizontalStack=0;resizeParent=1;resizeParentMax=0;resizeLast=0;collapsible=1;marginBottom=0;" vertex="1" parent="1">
          <mxGeometry x="1320" y="-479" width="160" height="156" as="geometry" />
        </mxCell>
        <mxCell id="lgV1PXhRq_5bHPOFEDmX-7" value="&lt;out&gt; PrintWriter" style="text;align=left;verticalAlign=top;spacingLeft=4;spacingRight=4;overflow=hidden;rotatable=0;points=[[0,0.5],[1,0.5]];portConstraint=eastwest;" vertex="1" parent="lgV1PXhRq_5bHPOFEDmX-6">
          <mxGeometry y="26" width="160" height="26" as="geometry" />
        </mxCell>
        <mxCell id="lgV1PXhRq_5bHPOFEDmX-8" value="CodeGenerstor(String String)" style="text;align=left;verticalAlign=top;spacingLeft=4;spacingRight=4;overflow=hidden;rotatable=0;points=[[0,0.5],[1,0.5]];portConstraint=eastwest;" vertex="1" parent="lgV1PXhRq_5bHPOFEDmX-6">
          <mxGeometry y="52" width="160" height="26" as="geometry" />
        </mxCell>
        <mxCell id="lgV1PXhRq_5bHPOFEDmX-9" value="pushBP()" style="text;align=left;verticalAlign=top;spacingLeft=4;spacingRight=4;overflow=hidden;rotatable=0;points=[[0,0.5],[1,0.5]];portConstraint=eastwest;" vertex="1" parent="lgV1PXhRq_5bHPOFEDmX-6">
          <mxGeometry y="78" width="160" height="26" as="geometry" />
        </mxCell>
        <mxCell id="lgV1PXhRq_5bHPOFEDmX-10" value="push(char)" style="text;align=left;verticalAlign=top;spacingLeft=4;spacingRight=4;overflow=hidden;rotatable=0;points=[[0,0.5],[1,0.5]];portConstraint=eastwest;" vertex="1" parent="lgV1PXhRq_5bHPOFEDmX-6">
          <mxGeometry y="104" width="160" height="26" as="geometry" />
        </mxCell>
        <mxCell id="lgV1PXhRq_5bHPOFEDmX-11" value="..." style="text;align=left;verticalAlign=top;spacingLeft=4;spacingRight=4;overflow=hidden;rotatable=0;points=[[0,0.5],[1,0.5]];portConstraint=eastwest;" vertex="1" parent="lgV1PXhRq_5bHPOFEDmX-6">
          <mxGeometry y="130" width="160" height="26" as="geometry" />
        </mxCell>
        <mxCell id="lgV1PXhRq_5bHPOFEDmX-12" value="" style="endArrow=block;dashed=1;endFill=0;endSize=12;html=1;rounded=0;exitX=0.008;exitY=0.65;exitDx=0;exitDy=0;entryX=0.75;entryY=1;entryDx=0;entryDy=0;exitPerimeter=0;" edge="1" parent="1" source="lgV1PXhRq_5bHPOFEDmX-1" target="krxHbP2sfhbJSF6yrtBJ-13">
          <mxGeometry width="160" relative="1" as="geometry">
            <mxPoint x="870" y="-210" as="sourcePoint" />
            <mxPoint x="870" y="-250" as="targetPoint" />
            <Array as="points">
              <mxPoint x="1245" y="-240" />
              <mxPoint x="890" y="-240" />
            </Array>
          </mxGeometry>
        </mxCell>
        <mxCell id="lgV1PXhRq_5bHPOFEDmX-13" value="" style="endArrow=classic;html=1;rounded=0;exitX=1;exitY=0.5;exitDx=0;exitDy=0;entryX=0;entryY=0.5;entryDx=0;entryDy=0;" edge="1" parent="1" source="lgV1PXhRq_5bHPOFEDmX-2" target="lgV1PXhRq_5bHPOFEDmX-4">
          <mxGeometry width="50" height="50" relative="1" as="geometry">
            <mxPoint x="1430" y="-259" as="sourcePoint" />
            <mxPoint x="1250" y="-309" as="targetPoint" />
          </mxGeometry>
        </mxCell>
        <mxCell id="lgV1PXhRq_5bHPOFEDmX-14" value="" style="endArrow=classic;html=1;rounded=0;exitX=0;exitY=0.5;exitDx=0;exitDy=0;entryX=1;entryY=0.5;entryDx=0;entryDy=0;" edge="1" parent="1" source="lgV1PXhRq_5bHPOFEDmX-2" target="lgV1PXhRq_5bHPOFEDmX-3">
          <mxGeometry width="50" height="50" relative="1" as="geometry">
            <mxPoint x="1200" y="-259" as="sourcePoint" />
            <mxPoint x="1250" y="-309" as="targetPoint" />
          </mxGeometry>
        </mxCell>
        <mxCell id="lgV1PXhRq_5bHPOFEDmX-15" value="&lt;font style=&quot;font-size: 13px;&quot;&gt;1&lt;/font&gt;" style="text;html=1;strokeColor=none;fillColor=none;align=center;verticalAlign=middle;whiteSpace=wrap;rounded=0;fontSize=17;" vertex="1" parent="1">
          <mxGeometry x="1290" y="-169" width="50" height="22" as="geometry" />
        </mxCell>
        <mxCell id="lgV1PXhRq_5bHPOFEDmX-16" value="&lt;font style=&quot;font-size: 13px;&quot;&gt;1&lt;/font&gt;" style="text;html=1;strokeColor=none;fillColor=none;align=center;verticalAlign=middle;whiteSpace=wrap;rounded=0;fontSize=17;" vertex="1" parent="1">
          <mxGeometry x="1480" y="-169" width="50" height="22" as="geometry" />
        </mxCell>
        <mxCell id="lgV1PXhRq_5bHPOFEDmX-19" value="&lt;font style=&quot;font-size: 13px;&quot;&gt;1&lt;/font&gt;" style="text;html=1;strokeColor=none;fillColor=none;align=center;verticalAlign=middle;whiteSpace=wrap;rounded=0;fontSize=17;" vertex="1" parent="1">
          <mxGeometry x="1540" y="-109" width="50" height="22" as="geometry" />
        </mxCell>
        <mxCell id="lgV1PXhRq_5bHPOFEDmX-20" value="" style="endArrow=none;html=1;rounded=0;exitX=0.5;exitY=1;exitDx=0;exitDy=0;entryX=0.5;entryY=1;entryDx=0;entryDy=0;" edge="1" parent="1" source="lgV1PXhRq_5bHPOFEDmX-3" target="lgV1PXhRq_5bHPOFEDmX-4">
          <mxGeometry width="50" height="50" relative="1" as="geometry">
            <mxPoint x="1200" y="-200" as="sourcePoint" />
            <mxPoint x="1250" y="-250" as="targetPoint" />
            <Array as="points">
              <mxPoint x="1245" y="-50" />
              <mxPoint x="1580" y="-50" />
            </Array>
          </mxGeometry>
        </mxCell>
        <mxCell id="lgV1PXhRq_5bHPOFEDmX-21" value="&lt;font style=&quot;font-size: 13px;&quot;&gt;1&lt;/font&gt;" style="text;html=1;strokeColor=none;fillColor=none;align=center;verticalAlign=middle;whiteSpace=wrap;rounded=0;fontSize=17;" vertex="1" parent="1">
          <mxGeometry x="1235" y="-109" width="50" height="22" as="geometry" />
        </mxCell>
        <mxCell id="lgV1PXhRq_5bHPOFEDmX-23" value="" style="endArrow=classic;html=1;rounded=0;exitX=0;exitY=0.5;exitDx=0;exitDy=0;entryX=0;entryY=0.5;entryDx=0;entryDy=0;" edge="1" parent="1" source="lgV1PXhRq_5bHPOFEDmX-3" target="lgV1PXhRq_5bHPOFEDmX-9">
          <mxGeometry width="50" height="50" relative="1" as="geometry">
            <mxPoint x="1200" y="-200" as="sourcePoint" />
            <mxPoint x="1250" y="-250" as="targetPoint" />
            <Array as="points">
              <mxPoint x="1120" y="-139" />
              <mxPoint x="1120" y="-390" />
            </Array>
          </mxGeometry>
        </mxCell>
        <mxCell id="lgV1PXhRq_5bHPOFEDmX-24" value="" style="endArrow=classic;html=1;rounded=0;exitX=1;exitY=0.5;exitDx=0;exitDy=0;entryX=1;entryY=0.5;entryDx=0;entryDy=0;" edge="1" parent="1" source="lgV1PXhRq_5bHPOFEDmX-4" target="lgV1PXhRq_5bHPOFEDmX-9">
          <mxGeometry width="50" height="50" relative="1" as="geometry">
            <mxPoint x="1200" y="-200" as="sourcePoint" />
            <mxPoint x="1250" y="-250" as="targetPoint" />
            <Array as="points">
              <mxPoint x="1710" y="-140" />
              <mxPoint x="1710" y="-388" />
            </Array>
          </mxGeometry>
        </mxCell>
        <mxCell id="lgV1PXhRq_5bHPOFEDmX-25" value="&lt;font style=&quot;font-size: 13px;&quot;&gt;1&lt;/font&gt;" style="text;html=1;strokeColor=none;fillColor=none;align=center;verticalAlign=middle;whiteSpace=wrap;rounded=0;fontSize=17;" vertex="1" parent="1">
          <mxGeometry x="1470" y="-420" width="50" height="22" as="geometry" />
        </mxCell>
        <mxCell id="lgV1PXhRq_5bHPOFEDmX-26" value="&lt;font style=&quot;font-size: 13px;&quot;&gt;1&lt;/font&gt;" style="text;html=1;strokeColor=none;fillColor=none;align=center;verticalAlign=middle;whiteSpace=wrap;rounded=0;fontSize=17;" vertex="1" parent="1">
          <mxGeometry x="1275" y="-420" width="50" height="22" as="geometry" />
        </mxCell>
        <mxCell id="lgV1PXhRq_5bHPOFEDmX-27" value="" style="endArrow=block;dashed=1;endFill=0;endSize=12;html=1;rounded=0;exitX=0.5;exitY=0;exitDx=0;exitDy=0;entryX=0.5;entryY=1;entryDx=0;entryDy=0;" edge="1" parent="1" source="lgV1PXhRq_5bHPOFEDmX-2" target="lgV1PXhRq_5bHPOFEDmX-1">
          <mxGeometry width="160" relative="1" as="geometry">
            <mxPoint x="1150" y="-230" as="sourcePoint" />
            <mxPoint x="1380" y="-200" as="targetPoint" />
            <Array as="points">
              <mxPoint x="1410" y="-190" />
              <mxPoint x="1320" y="-190" />
            </Array>
          </mxGeometry>
        </mxCell>
        <mxCell id="lgV1PXhRq_5bHPOFEDmX-28" value="" style="endArrow=none;dashed=1;html=1;rounded=0;exitX=0.5;exitY=0;exitDx=0;exitDy=0;edgeStyle=orthogonalEdgeStyle;" edge="1" parent="1" source="lgV1PXhRq_5bHPOFEDmX-3">
          <mxGeometry width="50" height="50" relative="1" as="geometry">
            <mxPoint x="1200" y="-200" as="sourcePoint" />
            <mxPoint x="1410" y="-190" as="targetPoint" />
            <Array as="points">
              <mxPoint x="1245" y="-190" />
            </Array>
          </mxGeometry>
        </mxCell>
        <mxCell id="lgV1PXhRq_5bHPOFEDmX-29" value="" style="endArrow=none;dashed=1;html=1;rounded=0;exitX=0.5;exitY=0;exitDx=0;exitDy=0;edgeStyle=orthogonalEdgeStyle;" edge="1" parent="1" source="lgV1PXhRq_5bHPOFEDmX-4">
          <mxGeometry width="50" height="50" relative="1" as="geometry">
            <mxPoint x="1255" y="-159" as="sourcePoint" />
            <mxPoint x="1410" y="-190" as="targetPoint" />
            <Array as="points">
              <mxPoint x="1580" y="-190" />
            </Array>
          </mxGeometry>
        </mxCell>
        <mxCell id="lgV1PXhRq_5bHPOFEDmX-30" value="" style="endArrow=classic;html=1;rounded=0;exitX=0.75;exitY=0;exitDx=0;exitDy=0;entryX=0.756;entryY=1.077;entryDx=0;entryDy=0;entryPerimeter=0;" edge="1" parent="1" source="lgV1PXhRq_5bHPOFEDmX-2" target="lgV1PXhRq_5bHPOFEDmX-11">
          <mxGeometry width="50" height="50" relative="1" as="geometry">
            <mxPoint x="1200" y="-230" as="sourcePoint" />
            <mxPoint x="1250" y="-280" as="targetPoint" />
          </mxGeometry>
        </mxCell>
        <mxCell id="lgV1PXhRq_5bHPOFEDmX-31" value="&lt;font style=&quot;font-size: 13px;&quot;&gt;1&lt;/font&gt;" style="text;html=1;strokeColor=none;fillColor=none;align=center;verticalAlign=middle;whiteSpace=wrap;rounded=0;fontSize=17;" vertex="1" parent="1">
          <mxGeometry x="1440" y="-320" width="50" height="22" as="geometry" />
        </mxCell>
      </root>
    </mxGraphModel>
  </diagram>
</mxfile>
